<svg width="100" height="110" viewBox="0 0 100 110" fill="none" xmlns="http://www.w3.org/2000/svg">
<path fill-rule="evenodd" clip-rule="evenodd" d="M43.4241 0.169509C41.9826 0.73972 40.3768 2.11029 39.0945 3.8651C37.1421 6.53682 35.6052 10.5413 34.9345 14.7045C34.6772 16.3008 34.621 17.0014 34.5892 19.0045C34.5472 21.6564 34.6562 22.9692 35.2056 26.4236C35.2893 26.9501 35.3424 27.406 35.3234 27.4366C35.238 27.5747 29.8585 31.2367 29.7409 31.2367C29.7054 31.2367 28.7067 28.9418 28.7095 28.8666C28.7114 28.8156 28.9774 28.8566 29.4077 28.9741C29.9075 29.1106 30.2097 29.5317 30.2688 30.174C30.2952 30.4617 30.3119 30.5076 30.3452 30.3846C30.3911 30.2151 30.3307 29.7342 30.231 29.4762C30.1351 29.2278 29.7926 28.9323 29.2433 28.624C28.7459 28.3448 28.4294 28.0728 28.2933 27.8077C28.2017 27.6293 28.0855 27.6293 28.1414 27.8077C28.1647 27.8825 28.5065 28.6754 28.9007 29.5698C29.2949 30.4641 29.6175 31.2322 29.6175 31.2767C29.6175 31.3312 29.5362 31.3576 29.3687 31.3576C29.1108 31.3576 29.1262 31.3459 28.5516 31.9777C28.4898 32.0457 27.9498 32.4202 27.3516 32.8101C26.2744 33.5121 26.2628 33.5178 26.1393 33.405C26.0707 33.3423 25.9619 33.2912 25.8976 33.2913C25.6018 33.2919 25.1585 33.7273 25.0064 34.1667C24.9375 34.3657 24.8123 34.4748 24.0848 34.9703C23.6217 35.2857 22.7344 35.907 22.113 36.351C21.4915 36.7949 20.9613 37.1578 20.9347 37.1573C20.9081 37.1568 20.3052 36.2596 19.5949 35.1634C18.8846 34.0672 18.2843 33.1702 18.2608 33.1702C18.2155 33.1702 15.9831 36.175 15.8581 36.4043C15.7772 36.5525 15.7007 36.4228 17.18 38.6478L17.829 39.6238L16.9407 40.4C14.7038 42.355 12.5751 44.6138 11.0133 46.6899C10.707 47.097 10.4407 47.4301 10.4213 47.4301C10.4021 47.4301 10.2656 47.3189 10.1183 47.183C9.59102 46.697 9.48842 46.6748 7.77458 46.6748H6.26401L5.85808 46.4664C5.63482 46.3518 5.43186 46.2783 5.40703 46.3031C5.28316 46.427 5.53404 46.6129 7.92564 48.1681C8.57368 48.5895 9.15627 48.9729 9.22032 49.02C9.33198 49.1022 9.31815 49.1373 8.87887 49.8842C8.36032 50.7659 7.45289 52.5615 7.10383 53.3967C6.82497 54.0638 6.89386 54.0354 5.53893 54.042C4.57639 54.0466 4.35077 54.0036 3.92086 53.7332C3.65506 53.566 3.36455 53.4941 3.31023 53.582C3.22932 53.7128 3.61446 54.0244 4.85494 54.8317C5.56346 55.2928 6.15404 55.6782 6.16739 55.6881C6.18074 55.698 6.03839 56.2164 5.85114 56.84C5.2573 58.8174 4.85295 60.7897 4.6034 62.926C4.53367 63.5228 4.46485 64.0228 4.45047 64.0371C4.43609 64.0515 3.95458 63.9779 3.38044 63.8735C2.80624 63.769 1.83349 63.5918 1.21869 63.4796C0.585395 63.364 0.0763923 63.2982 0.044489 63.3277C-0.0756923 63.4386 -0.196659 63.412 3.20237 64.0204L4.49114 64.2511L4.45518 64.4055C4.43537 64.4905 4.40219 65.3757 4.38141 66.3727C4.34425 68.1535 4.34117 68.1883 4.2034 68.3534C3.81996 68.813 3.85863 69.8068 4.29428 70.6881C4.43204 70.9668 4.47392 71.1668 4.53561 71.841C4.66938 73.3027 4.94437 74.9202 5.29295 76.2953C5.37839 76.6324 5.4483 76.9463 5.4483 76.9929C5.4483 77.0395 5.22969 77.2201 4.96244 77.3941C4.12008 77.9428 3.77524 78.5017 3.15108 80.3304C2.64576 81.8108 2.47059 82.1281 1.84455 82.6964C1.3495 83.1459 1.25573 83.2929 1.4231 83.3572C1.58521 83.4194 1.9657 83.1931 3.53295 82.1023C6.01863 80.3723 6.43518 80.0881 6.47041 80.0978C6.4886 80.1027 6.65555 80.4562 6.84147 80.8833C7.65833 82.7593 8.4657 84.249 9.53833 85.8591C9.89162 86.3894 9.91265 86.4391 9.81446 86.5127C9.69561 86.6016 7.7205 87.864 5.96503 88.973C5.10818 89.5144 4.81386 89.7307 4.81386 89.819C4.81386 89.8986 4.85361 89.9364 4.9347 89.9338C5.00117 89.9317 5.96642 89.3485 7.07972 88.6378C8.19301 87.9271 9.33222 87.2016 9.61132 87.0256L10.1188 86.7054L10.3922 87.0828C11.4618 88.559 13.5743 90.8748 15.0208 92.157L15.258 92.3672L15.0784 92.663C14.4754 93.6562 14.3778 94.652 14.7029 96.4935C14.7988 97.0364 14.8374 97.5037 14.8402 98.1552L14.8441 99.0615L14.6175 99.5629C14.3652 100.121 14.3241 100.421 14.4999 100.421C14.7134 100.421 14.9871 100.007 15.8569 98.3666C17.0585 96.1009 17.8924 94.5428 17.9163 94.5189C17.9273 94.508 18.3553 94.7808 18.8675 95.1251C19.8973 95.8175 21.1537 96.5656 22.3063 97.1724C23.0244 97.5506 24.9109 98.4289 25.1835 98.512C25.2902 98.5445 25.3232 98.6283 25.3829 99.0177C25.5188 99.9035 25.829 100.886 26.2936 101.901C27.3867 104.29 29.6385 106.692 31.974 107.96C34.6264 109.4 37.9899 109.768 41.1669 108.968C42.0476 108.746 42.732 108.491 43.667 108.037C46.3036 106.757 48.0823 104.873 49.0501 102.337C49.2762 101.745 49.5271 100.809 49.5909 100.321L49.6316 100.009L50.4554 99.7254C51.6908 99.2998 52.9704 98.7723 54.137 98.2078C54.7119 97.9296 55.2037 97.702 55.23 97.702C55.2563 97.702 55.8431 98.5721 56.534 99.6355C57.225 100.699 57.8252 101.569 57.8678 101.569C58.0029 101.569 62.6084 95.3106 62.6084 95.127C62.6084 95.0794 62.3396 94.6385 62.011 94.1472L61.4136 93.254L62.3491 92.3209C64.2883 90.3867 65.9394 88.2418 67.3235 85.8591C67.6727 85.258 68.8287 82.9954 68.9104 82.7533C68.925 82.7098 70.9095 83.6025 75.5865 85.7564C75.6929 85.8054 75.7455 85.7993 75.8153 85.7295C75.9569 85.5879 75.8637 85.4657 75.4904 85.3041C75.1947 85.1761 69.1326 82.4098 69.0876 82.3823C69.0787 82.3769 69.2182 81.9945 69.3976 81.5326C70.4774 78.7537 71.1399 75.9141 71.4402 72.7775C71.5517 71.6124 71.5345 68.2945 71.4106 67.0978C71.2872 65.9055 71.0591 64.4403 70.8574 63.5448C70.7736 63.1731 70.7051 62.8236 70.7051 62.7681C70.7051 62.7127 70.8784 62.5436 71.0902 62.3924C72.0061 61.7389 72.5058 60.8734 73.2392 58.6702C73.976 56.4569 74.3345 55.8156 75.2021 55.1588C75.6397 54.8275 75.7806 54.6563 75.7806 54.4559C75.7806 54.3513 75.7462 54.3183 75.6372 54.3183C75.2554 54.3183 75.1345 54.3973 69.4234 58.3782L69.2594 58.4925L69.0347 57.9915C67.9556 55.585 66.3839 53.1316 64.6016 51.0717C64.3362 50.7649 64.119 50.4903 64.119 50.4614C64.119 50.4325 64.289 50.2628 64.4967 50.0842C64.7044 49.9057 64.8879 49.7446 64.9045 49.7264C64.9211 49.7081 65.3698 49.3119 65.9015 48.8458C66.4332 48.3797 67.5616 47.3895 68.409 46.6454C69.2565 45.9012 70.5412 44.7746 71.264 44.1419C72.0293 43.472 72.5782 42.9477 72.5782 42.8866C72.5782 42.8289 72.5251 42.7533 72.4602 42.7185C72.3219 42.6446 72.6129 42.4018 68.4414 46.0706C66.8544 47.4663 65.4003 48.7443 65.2102 48.9104C65.0201 49.0766 64.6256 49.4232 64.3337 49.6806L63.8027 50.1487L62.9922 49.366C61.2504 47.6838 59.3684 46.2539 57.3818 45.1031C56.5284 44.6088 55.1839 43.927 54.5295 43.6568L53.9731 43.427L53.9343 43.1476C53.7757 42.0038 53.4847 41.2755 52.3584 39.204C51.7931 38.1644 51.4679 37.4161 51.3049 36.7804C51.1911 36.3365 51.1818 36.1861 51.2192 35.4051C51.2576 34.6033 51.2516 34.5162 51.1488 34.3893C51.0055 34.2124 50.8815 34.2583 50.7208 34.5476C50.5588 34.8396 50.5317 34.9877 50.0985 37.9437C49.6088 41.2858 49.507 41.9414 49.4723 41.9761C49.4562 41.9922 49.054 41.9352 48.5786 41.8495C45.6595 41.3233 42.6421 41.246 39.9542 41.6286C39.6684 41.6693 39.4924 41.6714 39.4695 41.6344C39.4498 41.6025 39.3821 41.2504 39.3192 40.8521L39.2047 40.1279L39.4105 39.9573C41.8689 37.9184 44.2989 35.1898 46.1312 32.4109C48.9439 28.1451 50.5798 23.6138 51.0377 18.8198C51.1534 17.6085 51.1695 14.9925 51.0686 13.7745C50.8795 11.4917 50.3014 8.55163 49.6964 6.79561C48.9979 4.76806 47.6876 2.82782 46.0896 1.45452C45.3175 0.79108 44.1095 -0.00934352 43.8944 8.24707e-05C43.8684 0.00123051 43.6568 0.0774843 43.4241 0.169509ZM95.2973 1.04389C95.2973 1.17301 95.3993 1.26897 96.5049 2.17936C98.5873 3.89416 99.1344 4.35519 99.1542 4.41181C99.1654 4.44347 99.1335 4.46933 99.0834 4.46933C98.938 4.46933 98.6261 4.76522 98.4899 5.03235C98.2565 5.48969 98.3694 6.1373 98.7095 6.29223C99.1913 6.51181 99.8272 5.88057 99.8286 5.18135C99.8293 4.82945 99.6365 4.62323 98.1299 3.36413C97.3031 2.6732 96.6266 2.08178 96.6266 2.04993C96.6266 2.01809 96.6878 1.99162 96.7625 1.9912C96.8373 1.99078 97.0709 1.9364 97.2815 1.87036C97.4922 1.80431 97.7505 1.75054 97.8555 1.7509C98.3168 1.75229 98.9806 2.23881 99.3319 2.83301C99.5414 3.18703 99.5763 3.05241 99.3771 2.65924C99.1571 2.22498 98.8447 1.90099 98.4684 1.71694C98.191 1.58117 98.0206 1.55084 97.2503 1.49978C96.1986 1.43011 96.0098 1.38842 95.6541 1.14733C95.357 0.946065 95.2973 0.928723 95.2973 1.04389ZM45.4552 8.94057C46.6046 9.15368 47.747 10.2683 48.1955 11.6142C48.3845 12.1815 48.5297 13.0994 48.5276 13.714C48.52 15.9695 47.5306 19.1863 45.8328 22.4754C43.9953 26.0349 42.3001 28.0752 39.2852 30.3559C38.8365 30.6953 38.3415 31.06 38.1852 31.1663C37.8606 31.387 37.8844 31.4031 37.6567 30.8107C37.5272 30.4739 37.2105 29.2991 37.243 29.2759C37.3796 29.1783 38.6659 28.0025 39.0913 27.5864L39.6527 27.0373L39.7698 27.1884L39.887 27.3394L39.8143 27.1424L39.7416 26.9454L40.4307 26.2544C40.8096 25.8743 41.1387 25.5751 41.1618 25.5893C41.185 25.6037 41.3147 25.7921 41.4501 26.0079L41.6962 26.4005L41.1876 27.0513C40.3236 28.1566 40.3971 28.0842 40.282 27.9437C40.2275 27.8772 40.2522 27.9452 40.3369 28.0947C40.4216 28.2443 40.5174 28.3666 40.5498 28.3666C40.6197 28.3666 41.8834 26.7359 41.8834 26.6455C41.8834 26.6112 41.7338 26.3512 41.551 26.0679C41.3682 25.7846 41.2187 25.526 41.2187 25.4933C41.2187 25.4606 41.4455 25.176 41.7226 24.8609C42.2282 24.286 42.9976 23.3213 42.9506 23.3213C42.9368 23.3213 42.6644 23.6408 42.3452 24.0313C42.0259 24.4217 41.6287 24.8908 41.4622 25.0736L41.1596 25.4059L41.0394 25.2548C40.9733 25.1718 40.9186 25.0797 40.9179 25.0502C40.9172 25.0207 41.1001 24.7928 41.3244 24.5436C41.6646 24.1659 42.1397 23.6097 42.5403 23.1205C42.5859 23.0647 42.6087 23.0192 42.591 23.0192C42.5733 23.0192 42.384 23.2299 42.1701 23.4875C41.7263 24.0221 40.9219 24.9153 40.8644 24.9372C40.8433 24.9453 40.7772 24.8664 40.7177 24.7618C40.5937 24.5441 40.5186 24.6632 41.3449 23.7682C41.5935 23.4988 41.9148 23.1318 42.0589 22.9525C42.3621 22.5751 42.2746 22.666 41.2579 23.7845C40.9206 24.1556 40.6136 24.4614 40.5756 24.4643C40.5095 24.4691 40.4332 24.3397 40.4332 24.2227C40.4332 24.1922 40.472 24.1672 40.5194 24.1672C40.6359 24.1672 40.8329 23.9072 40.9227 23.6349C40.9636 23.5113 41.1968 23.1931 41.4475 22.9192C41.8495 22.48 41.9259 22.4234 42.1478 22.4001C42.446 22.3688 42.467 22.3802 42.3684 22.5192C42.3266 22.5782 42.3916 22.5177 42.5129 22.3847C42.7782 22.094 43.1049 21.6295 43.0441 21.6295C42.9574 21.6295 42.8556 21.1821 42.9236 21.1001C42.9722 21.0416 42.9657 21.031 42.8975 21.0572C42.7565 21.1113 42.6273 20.7572 42.737 20.6173C42.8106 20.5235 42.809 20.5202 42.7223 20.5878C42.6362 20.655 42.585 20.573 42.2864 19.8904C42.1003 19.4649 41.9049 19.0133 41.8521 18.8869L41.756 18.657L42.016 18.698C42.7337 18.8109 42.9919 18.968 43.2141 19.427C43.3264 19.6591 43.3338 19.7137 43.2641 19.7997C43.2192 19.8551 43.2136 19.8817 43.2516 19.8589C43.3929 19.7743 43.4568 20.3339 43.3214 20.4693C43.2815 20.5092 43.2747 20.5416 43.3063 20.5414C43.3379 20.5411 43.4214 20.4345 43.492 20.3045C43.5799 20.1426 43.5942 20.0782 43.5373 20.1C43.4278 20.142 43.4213 19.5759 43.5299 19.4541C43.5939 19.3824 43.5896 19.3813 43.5026 19.447C43.4124 19.5151 43.3885 19.4978 43.3088 19.3072C43.1873 19.0163 42.9121 18.7711 42.3708 18.4714C41.8515 18.1839 41.5517 17.937 41.4255 17.693C41.3182 17.4853 41.1909 17.4623 41.2404 17.6595C41.2596 17.7358 41.5616 18.4444 41.9116 19.2341C42.2617 20.0238 42.548 20.7118 42.548 20.7629C42.548 20.8139 42.3883 21.0094 42.1931 21.1973C41.9978 21.3851 41.7901 21.634 41.7313 21.7503C41.5846 22.0406 39.8609 23.7801 38.832 24.6762C37.8953 25.4919 37.0058 26.2216 36.948 26.2216C36.8846 26.2216 36.9796 23.5877 37.0788 22.5962C37.2945 20.4386 37.8266 17.6461 38.2691 16.3489C38.5859 15.4205 39.4142 13.8173 40.1407 12.7266C41.4788 10.7178 42.855 9.45314 44.1492 9.04299C44.6818 8.87422 44.9738 8.85132 45.4552 8.94057ZM73.404 13.3918C73.3327 13.463 73.3609 13.7719 73.4598 14.003C73.5573 14.2307 75.6606 19.3096 76.0905 20.3554C76.2192 20.6684 76.3244 20.9431 76.3244 20.966C76.3244 20.9888 76.1953 20.9954 76.0374 20.9806C75.5554 20.9354 75.1041 21.1464 74.5972 21.6539C74.2829 21.9687 74.1423 22.1618 74.0685 22.3804C73.7711 23.2609 74.1542 23.8605 74.9569 23.771C75.8601 23.6703 76.8076 22.6879 76.8078 21.8521C76.8078 21.6139 76.5981 21.0431 75.6536 18.7101C75.0188 17.142 74.4844 15.8344 74.466 15.8042C74.4466 15.7725 74.4938 15.769 74.5779 15.7959C74.6578 15.8214 75.0145 15.8788 75.3705 15.9233C76.2027 16.0273 76.4212 16.0887 76.7604 16.3134C77.4504 16.7704 77.792 17.6275 77.8003 18.9229C77.8044 19.5771 77.8106 19.6134 77.8823 19.4066C78.0906 18.8053 78.0663 17.6994 77.8308 17.0701C77.551 16.3221 77.1699 15.9995 75.6368 15.2124C74.4589 14.6076 74.0767 14.3095 73.8646 13.8302C73.6985 13.4546 73.5154 13.2804 73.404 13.3918ZM44.1467 18.3102C44.1248 18.3456 44.1198 18.3876 44.1357 18.4035C44.1515 18.4193 44.1806 18.3903 44.2003 18.339C44.2411 18.2325 44.2063 18.2138 44.1467 18.3102ZM43.8773 19.5751C43.8417 19.6415 43.8262 19.6959 43.8429 19.6959C43.8595 19.6959 43.9021 19.6415 43.9377 19.5751C43.9733 19.5086 43.9888 19.4542 43.9722 19.4542C43.9556 19.4542 43.9129 19.5086 43.8773 19.5751ZM45.1839 19.6681C45.1256 19.82 45.1427 19.8592 45.214 19.7367C45.2493 19.676 45.2654 19.6137 45.2498 19.5982C45.2343 19.5826 45.2046 19.614 45.1839 19.6681ZM42.8424 20.4059C42.7673 20.5017 42.7694 20.5038 42.8652 20.4287C42.9234 20.3831 42.971 20.3355 42.971 20.323C42.971 20.2733 42.9214 20.3052 42.8424 20.4059ZM43.696 20.6627C43.6604 20.7292 43.645 20.7835 43.6616 20.7835C43.6782 20.7835 43.7209 20.7292 43.7565 20.6627C43.792 20.5962 43.8075 20.5418 43.7909 20.5418C43.7743 20.5418 43.7316 20.5962 43.696 20.6627ZM44.1492 20.7231C44.0977 20.8228 44.0691 20.9044 44.0857 20.9044C44.1023 20.9044 44.1581 20.8228 44.2096 20.7231C44.2612 20.6234 44.2898 20.5418 44.2731 20.5418C44.2565 20.5418 44.2008 20.6234 44.1492 20.7231ZM43.0237 20.8893C42.9485 20.9851 42.9507 20.9872 43.0465 20.9121C43.1046 20.8665 43.1522 20.8189 43.1522 20.8064C43.1522 20.7566 43.1026 20.7886 43.0237 20.8893ZM42.7293 21.0972C42.7293 21.1241 42.6471 21.1461 42.5466 21.1461H42.364L42.4672 20.9886C42.5642 20.8405 42.5751 20.8375 42.6498 20.9397C42.6935 20.9994 42.7293 21.0703 42.7293 21.0972ZM43.5316 20.9195C43.441 21.0366 43.384 21.1461 43.4136 21.1461C43.4284 21.1461 43.485 21.0781 43.5394 20.995C43.6413 20.8395 43.6356 20.785 43.5316 20.9195ZM43.7873 21.3046C43.7302 21.3918 43.7134 21.4446 43.7499 21.422C43.8196 21.3789 43.9603 21.1461 43.9166 21.1461C43.9026 21.1461 43.8445 21.2174 43.7873 21.3046ZM43.2653 21.3122C43.1902 21.4081 43.1924 21.4102 43.2882 21.3351C43.3888 21.2561 43.4208 21.2065 43.3711 21.2065C43.3586 21.2065 43.311 21.2541 43.2653 21.3122ZM44.2398 21.3878C44.2043 21.4542 44.1888 21.5086 44.2054 21.5086C44.222 21.5086 44.2647 21.4542 44.3003 21.3878C44.3359 21.3213 44.3513 21.2669 44.3347 21.2669C44.3181 21.2669 44.2754 21.3213 44.2398 21.3878ZM44.0586 21.6899C44.023 21.7563 44.0075 21.8107 44.0241 21.8107C44.0408 21.8107 44.0834 21.7563 44.119 21.6899C44.1546 21.6234 44.1701 21.569 44.1534 21.569C44.1368 21.569 44.0942 21.6234 44.0586 21.6899ZM43.2731 22.0524C43.2021 22.1521 43.1576 22.2337 43.1742 22.2337C43.1908 22.2337 43.2625 22.1521 43.3335 22.0524C43.4045 21.9527 43.449 21.8711 43.4324 21.8711C43.4157 21.8711 43.3441 21.9527 43.2731 22.0524ZM43.8941 21.9467C43.8035 22.0638 43.7466 22.1733 43.7762 22.1733C43.7909 22.1733 43.8475 22.1053 43.902 22.0222C44.0038 21.8667 43.9982 21.8122 43.8941 21.9467ZM41.7635 22.1897L41.8552 22.3847L41.4691 22.8228C41.083 23.2609 40.977 23.3366 40.977 23.1745C40.977 23.1271 40.9351 23.0463 40.8838 22.995C40.7998 22.911 40.8281 22.8624 41.1708 22.5029C41.3799 22.2835 41.5601 22.0788 41.5711 22.048C41.6079 21.946 41.6708 21.9922 41.7635 22.1897ZM30.2242 22.3243C30.2226 22.3908 30.5459 23.1793 30.9426 24.0766C31.3394 24.9739 31.6726 25.7443 31.683 25.7887C31.6959 25.8432 31.6275 25.8745 31.4719 25.8853C31.0753 25.9129 30.6982 26.2872 30.6875 26.6639C30.6662 27.4124 31.8029 27.195 31.9464 26.4231C31.9703 26.2944 31.8336 25.9211 31.397 24.9225C30.7035 23.3365 30.7109 23.3574 30.8624 23.4006C30.9255 23.4186 31.0994 23.4521 31.2489 23.4751C31.5843 23.5266 31.7745 23.6221 31.9867 23.8455C32.156 24.0235 32.3358 24.4481 32.3374 24.6733C32.338 24.7439 32.3673 24.8424 32.4027 24.8923C32.5194 25.0564 32.402 24.2771 32.2685 24.001C32.1155 23.6843 31.8586 23.4682 31.238 23.1342C30.8006 22.8988 30.6267 22.7473 30.3302 22.3437C30.2332 22.2118 30.2269 22.2107 30.2242 22.3243ZM43.5148 22.5056C43.4119 22.6551 43.3413 22.7775 43.3579 22.7775C43.3745 22.7775 43.4723 22.6551 43.5752 22.5056C43.6781 22.356 43.7487 22.2337 43.7321 22.2337C43.7154 22.2337 43.6177 22.356 43.5148 22.5056ZM42.9105 22.5509C42.5885 22.9613 42.5623 23.0014 42.6717 22.9162C42.77 22.8397 43.1771 22.2941 43.1359 22.2941C43.1227 22.2941 43.0214 22.4097 42.9105 22.5509ZM43.2042 22.9437C43.0304 23.1535 42.9568 23.2609 42.9866 23.2609C43.0033 23.2609 43.0896 23.1657 43.1783 23.0494C43.343 22.8336 43.3629 22.7521 43.2042 22.9437ZM39.9272 24.3906C39.6805 24.6495 39.6084 24.6942 39.5169 24.6453C39.3003 24.5294 39.0563 24.7404 38.8818 25.1944C38.8201 25.3552 38.6669 25.5651 38.5072 25.708C37.9659 26.1922 37.0381 26.9467 36.9841 26.9467C36.9536 26.9467 36.9287 26.8129 36.9287 26.6494V26.3521L37.5782 25.8225C38.3584 25.1865 38.9568 24.6645 39.6472 24.018L40.1613 23.5365L40.1939 23.8066C40.2251 24.065 40.2137 24.0901 39.9272 24.3906ZM40.4058 24.354C40.5188 24.5724 40.5088 24.589 39.9511 25.1184C39.5771 25.4735 39.503 25.5067 39.5888 25.2811C39.6212 25.1959 39.6477 25.0352 39.6477 24.924C39.6477 24.7555 39.7005 24.676 39.9649 24.446C40.1394 24.2943 40.2882 24.1695 40.2957 24.1687C40.3032 24.1679 40.3527 24.2513 40.4058 24.354ZM40.7094 24.8402L40.8074 25.0298L40.1228 25.7163C39.7463 26.0939 39.4192 26.4029 39.396 26.4029C39.3728 26.4029 39.296 26.3217 39.2253 26.2225L39.0969 26.042L39.8104 25.3487C40.2027 24.9673 40.5435 24.6543 40.5676 24.653C40.5917 24.6517 40.6555 24.7359 40.7094 24.8402ZM41.0062 25.3133L41.095 25.4849L40.4259 26.1856C40.0579 26.571 39.7341 26.8863 39.7064 26.8863C39.6786 26.8863 39.5965 26.8027 39.5237 26.7006L39.3916 26.515L40.1046 25.7974C40.4967 25.4028 40.84 25.0938 40.8675 25.1108C40.895 25.1278 40.9574 25.2189 41.0062 25.3133ZM38.888 25.7475C38.9403 25.8523 38.9811 25.9679 38.9786 26.0043C38.9717 26.106 37.1579 27.6718 37.047 27.6718C37.0151 27.6718 36.9891 27.5392 36.9891 27.3773V27.0828L37.8803 26.3239C38.3705 25.9066 38.7764 25.5632 38.7823 25.561C38.7881 25.5588 38.8357 25.6427 38.888 25.7475ZM60.7709 25.7899C60.7533 25.8184 60.694 26.3147 60.6392 26.8927C60.5844 27.4707 60.5224 27.9625 60.5015 27.9856C60.4565 28.0351 59.3863 28.2741 59.3529 28.242C59.3403 28.2299 59.3713 27.7908 59.4218 27.2661C59.5207 26.2399 59.5006 26.1008 59.254 26.1008C59.074 26.1008 59.0711 26.1124 58.9783 27.2123C58.8797 28.3812 58.8909 28.3529 58.4954 28.4276L58.1673 28.4896L58.128 28.8209C58.1064 29.0031 58.086 29.2366 58.0827 29.3398L58.0767 29.5275L58.3806 29.4674C58.5476 29.4344 58.702 29.4249 58.7235 29.4464C58.7624 29.4854 58.5686 31.9524 58.5201 32.0356C58.5061 32.0596 58.3589 32.0971 58.1929 32.1192C58.007 32.1438 57.8718 32.1968 57.8411 32.2569C57.8136 32.3106 57.7753 32.553 57.7559 32.7956C57.7243 33.191 57.7313 33.2337 57.8232 33.2079C57.8795 33.1921 58.0433 33.1608 58.187 33.1383L58.4485 33.0976L58.4143 33.3605C58.3281 34.0243 58.2595 34.977 58.2919 35.0615C58.3456 35.2015 58.5093 35.2408 58.6119 35.1383C58.6769 35.0732 58.7282 34.7598 58.7925 34.0333C58.8419 33.4756 58.8875 33.0118 58.8937 33.0027C58.9209 32.9637 60.0135 32.7908 60.0435 32.8208C60.0617 32.8391 60.0434 33.2661 60.0027 33.7698C59.9349 34.6096 59.9372 34.6941 60.031 34.7879C60.1098 34.8667 60.1574 34.8751 60.238 34.8246C60.3226 34.7716 60.3611 34.5739 60.4397 33.7889C60.4931 33.2554 60.5522 32.7789 60.5708 32.7302C60.5901 32.6802 60.7252 32.6235 60.8814 32.6002C61.1902 32.5538 61.1876 32.5586 61.2447 31.9108L61.2785 31.5276L60.9766 31.5691L60.6749 31.6106V31.42C60.6749 31.1881 60.851 29.2643 60.8889 29.0823C60.9107 28.9779 60.9747 28.944 61.2113 28.9115C61.4945 28.8725 61.508 28.8618 61.5432 28.6489C61.5634 28.5269 61.5802 28.2953 61.5806 28.1344L61.5812 27.8417L61.2727 27.8841L60.9642 27.9266L60.9985 27.6934C61.0174 27.5652 61.0657 27.1151 61.1057 26.6931C61.1646 26.0722 61.1636 25.9081 61.1005 25.8321C61.0164 25.7307 60.8228 25.706 60.7709 25.7899ZM39.1913 26.2554C39.247 26.3405 39.2841 26.446 39.2738 26.4899C39.2322 26.6662 37.2062 28.4261 37.112 28.3679C37.0776 28.3466 37.0495 28.2122 37.0495 28.0691C37.0495 27.82 37.0682 27.7933 37.4876 27.4432C37.7285 27.242 38.1704 26.8586 38.4695 26.591C38.7685 26.3234 39.0305 26.1037 39.0516 26.1026C39.0727 26.1016 39.1356 26.1704 39.1913 26.2554ZM39.532 26.8056L39.6517 26.9948L38.8768 27.7109C37.8102 28.6965 37.3189 29.1219 37.2474 29.1219C37.214 29.1219 37.1693 28.9946 37.148 28.8389C37.1107 28.5664 37.1176 28.5492 37.3362 28.3707C37.6889 28.0827 39.1277 26.7917 39.2204 26.68C39.3275 26.551 39.3856 26.5744 39.532 26.8056ZM39.9421 27.4603C39.9747 27.5267 40.0456 27.6355 40.0998 27.702L40.1982 27.8228L40.1388 27.702C40.1062 27.6355 40.0353 27.5267 39.9811 27.4603L39.8827 27.3394L39.9421 27.4603ZM35.4407 27.8946L35.4788 28.1476L34.4968 28.8641C33.9566 29.2582 33.2627 29.7562 32.9545 29.9706C32.6464 30.1851 32.1978 30.4977 31.9575 30.6653C31.4907 30.991 30.0557 31.9683 29.9327 32.0443C29.8792 32.0774 29.862 32.0345 29.8708 31.89C29.8775 31.7799 29.8642 31.6083 29.8413 31.5086C29.7998 31.3281 29.8062 31.323 31.4155 30.2555C32.3043 29.666 33.548 28.8194 34.1794 28.3741C34.8108 27.9289 35.3444 27.5819 35.365 27.6031C35.3857 27.6242 35.4198 27.7554 35.4407 27.8946ZM35.5622 28.624L35.601 28.8813L34.3162 29.8376C33.6095 30.3635 32.3244 31.2967 31.4604 31.9114C30.5963 32.5261 28.9663 33.687 27.8381 34.4913L25.7867 35.9535L25.5874 35.6373C25.4778 35.4634 25.4084 35.3031 25.4333 35.2811C25.5105 35.2128 27.3879 33.915 29.3154 32.5974C31.4335 31.1496 33.3137 29.8328 34.5709 28.9169C35.0521 28.5663 35.4633 28.2991 35.4846 28.3231C35.506 28.347 35.5409 28.4825 35.5622 28.624ZM35.6769 29.3505L35.7093 29.6093L35.2393 29.9849C34.4353 30.6276 33.1577 31.5952 31.4302 32.8699C28.7787 34.8264 28.6791 34.9002 27.4606 35.8151C26.8227 36.2941 26.2725 36.6684 26.2378 36.647C26.1636 36.6012 25.8462 36.0724 25.8791 36.0492C25.8914 36.0405 26.1054 35.8832 26.3546 35.6997C26.6039 35.5162 27.6779 34.7444 28.7414 33.9848C31.5696 31.9644 33.7624 30.3716 34.7199 29.6423C35.1833 29.2892 35.5809 29.0209 35.6035 29.0461C35.6261 29.0712 35.6591 29.2082 35.6769 29.3505ZM60.4332 29.0788C60.4332 29.4313 60.1697 31.6962 60.1255 31.7235C60.0907 31.745 59.867 31.7959 59.6284 31.8366C59.3898 31.8773 59.1431 31.9251 59.0801 31.943C58.9756 31.9726 58.969 31.9499 59.0035 31.6816C59.0243 31.52 59.0848 30.9257 59.1379 30.3608C59.191 29.7959 59.246 29.3223 59.2601 29.3081C59.3012 29.267 60.4332 29.0457 60.4332 29.0788ZM35.8003 30.0921L35.8356 30.3675L34.7356 31.2483C34.1306 31.7327 33.0604 32.5741 32.3572 33.118C28.7095 35.9396 27.225 37.0866 26.9867 37.2675L26.7232 37.4674L26.5603 37.2093C26.4707 37.0674 26.3945 36.9128 26.3911 36.8658C26.3846 36.7768 27.0722 36.2463 30.7971 33.4666C33.1642 31.7001 34.3316 30.8144 35.1738 30.1459C35.4577 29.9206 35.7069 29.7544 35.7275 29.7765C35.7481 29.7986 35.7809 29.9407 35.8003 30.0921ZM36.0702 31.7356C36.1796 32.4084 36.2679 33.0048 36.2666 33.0611C36.2636 33.1807 35.7603 33.799 35.1517 34.4308C34.4406 35.1691 32.3431 36.9423 30.8617 38.0576C28.4005 39.9106 27.3157 40.8386 25.5974 42.5611C24.3731 43.7883 23.5119 44.7629 22.6297 45.9195C19.6768 49.791 17.9556 54.0777 17.5867 58.4793C17.4983 59.5338 17.5523 62.3273 17.6784 63.2247C18.2848 67.5393 19.6032 71.0071 21.958 74.4809C23.5414 76.8167 25.7557 79.0719 28.1255 80.7622C31.2978 83.0249 35.3264 84.5098 39.1643 84.8309C40.7642 84.9648 43.2002 84.8957 44.3204 84.6847C44.6493 84.6228 44.7393 84.6222 44.7623 84.6822C44.8252 84.8462 45.6179 89.2732 45.5919 89.3153C45.543 89.3944 43.7522 89.9494 43.0068 90.1165C40.7842 90.6147 39.362 90.7712 37.0193 90.7753C34.8472 90.7791 33.4119 90.6398 31.4862 90.2384C21.6688 88.1919 14.1123 81.307 11.9083 72.4005C11.7995 71.9608 11.7222 71.5896 11.7365 71.5758C11.7508 71.5619 12.3725 71.5057 13.118 71.4508C13.8636 71.3959 14.4957 71.3373 14.5229 71.3205C14.55 71.3037 14.5722 71.2509 14.5722 71.203C14.5722 71.0941 14.2772 71.0938 12.7897 71.2016C12.1915 71.2449 11.6843 71.2638 11.6626 71.2434C11.6409 71.2231 11.5541 70.7443 11.4696 70.1793C11.1151 67.8068 11.0372 66.7758 11.0385 64.4694C11.0398 62.2326 11.1209 61.1873 11.3363 60.6325C11.5056 60.1962 11.5609 59.8106 11.5009 59.4845C11.4511 59.2136 11.5207 58.7787 11.7959 57.6416C13.336 51.2765 17.0707 45.8566 24.0418 39.8697C25.4101 38.6945 26.6305 37.702 26.7072 37.702C26.7396 37.702 26.8414 37.8305 26.9335 37.9875C27.0255 38.1446 27.1113 38.2417 27.1241 38.2032C27.1369 38.1647 27.0751 38.024 26.9867 37.8904C26.8983 37.7568 26.8355 37.6203 26.8471 37.5871C26.8696 37.5227 28.1662 36.4919 30.275 34.8621C33.0154 32.7441 35.6272 30.6736 35.6931 30.567C35.8133 30.3726 35.8843 30.5928 36.0702 31.7356ZM28.874 32.5441C28.9506 32.5634 29.0133 32.6001 29.0133 32.6258C29.0133 32.6515 28.5986 32.9534 28.0918 33.2968C27.585 33.6402 26.765 34.202 26.2696 34.5455C25.4628 35.1047 25.2066 35.2267 25.2066 35.0518C25.2066 35.0211 25.2725 34.9795 25.353 34.9593C25.693 34.8739 26.0722 34.4064 26.1965 33.9191C26.2646 33.6521 26.2824 33.6371 27.4128 32.8977L28.5601 32.1473L28.6475 32.3283C28.6955 32.4278 28.7974 32.5249 28.874 32.5441ZM19.348 35.0283C20.6459 37.0115 20.8136 37.2855 20.7588 37.3339C20.7292 37.36 20.474 37.5531 20.1915 37.7632C19.909 37.9733 19.2893 38.4576 18.8143 38.8394C18.3131 39.2424 17.9291 39.5107 17.8992 39.4789C17.8708 39.4487 17.4902 38.8823 17.0533 38.2203C16.5771 37.4985 16.2728 36.9806 16.2935 36.9268C16.3412 36.8024 18.5209 33.8993 18.5682 33.8971C18.5893 33.8961 18.9402 34.4052 19.348 35.0283ZM25.0421 34.9264C25.1345 35.0938 25.1959 35.2534 25.1788 35.2812C25.1616 35.309 24.8278 35.5571 24.4369 35.8326C24.0461 36.1081 23.2151 36.7126 22.5905 37.176C21.9658 37.6394 21.4468 38.0085 21.4371 37.9962C21.3133 37.8388 21.0374 37.3953 21.0374 37.3536C21.0374 37.2919 22.2479 36.4017 23.6054 35.465C24.1039 35.121 24.5797 34.7912 24.6628 34.7319C24.7459 34.6727 24.8275 34.6238 24.8441 34.6232C24.8607 34.6226 24.9498 34.7591 25.0421 34.9264ZM25.5326 35.7375L25.7128 36.0305L25.5688 36.1261C25.2782 36.319 23.3991 37.7439 22.548 38.4166C22.0661 38.7976 21.6438 39.1308 21.6096 39.1573C21.5678 39.1895 21.5511 39.0273 21.5588 38.6624L21.5702 38.1194L22.3299 37.5454C23.7934 36.4393 25.2374 35.407 25.2947 35.4257C25.3265 35.436 25.4336 35.5763 25.5326 35.7375ZM26.0839 36.6232C26.1693 36.7818 26.1659 36.7863 25.6732 37.1649C19.1998 42.1396 15.0413 46.6103 12.5845 51.2363C11.8701 52.5814 11.0902 54.3668 10.7367 55.4663C10.6779 55.6491 10.6096 55.8208 10.5849 55.848C10.5602 55.8751 10.4642 55.768 10.3717 55.6101C10.2791 55.4521 10.0979 55.2084 9.96896 55.0686L9.73458 54.8143L9.89017 54.4002C10.1496 53.7096 10.7752 52.3243 10.8278 52.3243C10.8549 52.3243 10.9646 52.2507 11.0716 52.1606C11.325 51.9474 11.5497 51.46 11.5504 51.1217C11.5511 50.8149 11.7092 50.5069 12.5147 49.2428C13.7587 47.2905 15.1965 45.4774 16.9685 43.6263L17.5731 42.9947L17.7526 43.1956C17.9075 43.3689 17.958 43.3909 18.1197 43.3553C18.553 43.2602 19.0278 42.5331 19.0876 41.8731L19.1209 41.5058L19.7922 40.9155C20.1614 40.5909 20.5883 40.253 20.741 40.1646C20.8936 40.0763 21.0913 39.9086 21.1803 39.7919C21.416 39.4828 22.9235 38.2623 24.8927 36.7859L25.7702 36.128L25.884 36.2956C25.9466 36.3878 26.0366 36.5353 26.0839 36.6232ZM66.761 36.6855C66.6538 36.7961 65.7096 38.456 64.6628 40.3742C63.616 42.2923 62.7459 43.8624 62.7293 43.8632C62.7127 43.8641 62.6447 43.764 62.5782 43.6407C62.2172 42.9712 61.1256 42.6484 60.2856 42.9627C59.2355 43.3556 59.3151 44.487 60.4292 45.0052C60.8832 45.2163 61.662 45.2283 62.0394 45.0299C62.4807 44.7979 62.3377 45.0283 64.8519 40.4965C65.3175 39.6574 65.7201 38.9709 65.7467 38.9709C65.7733 38.9709 65.8103 39.0651 65.829 39.1802C65.8477 39.2953 65.9544 39.5469 66.0661 39.7391C66.4717 40.437 66.5603 40.7099 66.5634 41.2715C66.566 41.7624 66.5526 41.817 66.3084 42.3098C66.0347 42.8623 65.3888 43.6201 64.9076 43.9536C64.7718 44.0478 64.6719 44.1361 64.6858 44.1499C64.7334 44.1976 65.4249 43.8147 65.6933 43.5921C66.2952 43.093 66.7557 42.3873 66.8986 41.745C66.9954 41.31 66.9528 40.4576 66.7795 39.3636C66.6066 38.2712 66.6327 37.7638 66.8921 37.1727C66.9953 36.9376 67.0797 36.7037 67.0797 36.6531C67.0797 36.4741 66.9534 36.4869 66.761 36.6855ZM26.4645 37.2287L26.6447 37.5408L26.188 37.9084C25.2028 38.7013 23.8009 39.8808 22.8501 40.7167C21.5105 41.8945 18.939 44.4702 17.9876 45.5872C15.1759 48.8882 13.3075 52.1055 12.127 55.6785C11.8879 56.4019 11.4749 57.9315 11.3391 58.5964C11.3166 58.7062 11.2804 58.7878 11.2585 58.7777C11.2366 58.7676 10.9945 58.6098 10.7205 58.4271C10.1513 58.0474 10.1763 58.1591 10.443 57.1884C10.6589 56.4031 10.639 56.4438 10.7396 56.5806C10.8423 56.7201 10.8472 56.6935 10.7632 56.4525C10.6923 56.2492 10.8778 55.6188 11.3998 54.2881C13.6062 48.6645 17.6218 43.7462 24.4513 38.3027C25.9055 37.1437 26.1981 36.9174 26.2439 36.9169C26.2661 36.9167 26.3653 37.057 26.4645 37.2287ZM21.0511 37.6444C21.1499 37.818 21.1499 37.8295 21.0511 37.8609C20.667 37.9834 20.3972 38.2837 20.1635 38.8492C20.0621 39.0946 19.9232 39.245 19.3758 39.7022C19.0102 40.0074 18.6662 40.2958 18.6113 40.3431C18.5219 40.4201 18.4877 40.3933 18.2836 40.0858C18.1087 39.8223 18.0699 39.7196 18.1166 39.6437C18.2311 39.4576 20.7646 37.4611 20.8864 37.4611C20.9196 37.4611 20.9937 37.5435 21.0511 37.6444ZM20.0605 39.641C20.0661 39.7823 20.1249 39.9649 20.1978 40.0674C20.2681 40.166 20.3158 40.2544 20.3038 40.2637C20.2919 40.273 20.0325 40.5026 19.7274 40.7738C19.4223 41.045 19.1475 41.2669 19.1166 41.2669C19.0665 41.2669 18.6205 40.6457 18.6205 40.5759C18.6205 40.5379 19.9704 39.3941 20.0154 39.3939C20.0349 39.3939 20.0552 39.5051 20.0605 39.641ZM18.1657 40.1332C18.2829 40.3072 18.3769 40.4771 18.3747 40.5109C18.3724 40.5445 18.1508 40.7624 17.8821 40.995C17.0789 41.6906 14.8847 43.8957 14.0943 44.8017C12.9087 46.1606 11.629 47.8696 10.8029 49.1972C10.6233 49.4858 10.485 49.6498 10.4422 49.6248C10.3685 49.5817 9.66334 49.1159 9.6251 49.0849C9.58642 49.0536 10.3995 47.853 10.4594 47.853C10.4905 47.853 10.5925 47.9628 10.6861 48.0968C11.0108 48.5623 11.0145 48.5661 10.9433 48.3678C10.9079 48.2689 10.8093 48.06 10.7243 47.9039L10.5697 47.62L10.9397 47.1077C12.0341 45.5916 13.5053 43.9108 15.1545 42.2924C16.203 41.2634 17.8107 39.8168 17.9056 39.8168C17.9315 39.8168 18.0485 39.9591 18.1657 40.1332ZM51.9833 40.7583C52.718 41.4852 53.0931 42.1163 53.2107 42.8228C53.2498 43.0572 53.2424 43.0796 53.1263 43.0796C53.0275 43.0796 52.9516 42.9797 52.7869 42.6328C52.6703 42.3872 52.3004 41.769 51.965 41.2593C51.6296 40.7495 51.3405 40.2942 51.3226 40.2474C51.2631 40.0924 51.4791 40.2595 51.9833 40.7583ZM18.5374 40.9967C18.128 41.164 17.7042 41.8279 17.6211 42.4325C17.5802 42.7301 17.5435 42.7795 16.7156 43.6513C14.7508 45.7205 13.4016 47.4371 12.1116 49.5092C11.8021 50.0063 11.5362 50.4258 11.5206 50.4414C11.505 50.457 11.4375 50.4 11.3705 50.3149C11.3036 50.2298 11.1265 50.0829 10.9771 49.9884C10.8276 49.8941 10.7053 49.7961 10.7052 49.7708C10.705 49.7054 11.2552 48.8307 11.7215 48.1551C13.4276 45.6831 15.3455 43.539 18.1975 40.9152L18.4694 40.6651L18.5813 40.799C18.6916 40.9311 18.691 40.9339 18.5374 40.9967ZM50.505 41.3618C50.9752 41.4701 51.3517 41.6902 51.7073 42.0644C51.9935 42.3658 52.2157 42.6524 52.2157 42.7203C52.2157 42.7464 51.9964 42.7004 51.7284 42.6181C51.4604 42.5357 50.9506 42.392 50.5955 42.2986L49.9498 42.1288L49.9641 41.8338C49.9792 41.5215 50.0259 41.2669 50.0681 41.2669C50.082 41.2669 50.2786 41.3096 50.505 41.3618ZM37.5933 41.5894C37.5933 41.6925 38.734 49.001 39.3725 52.989C39.487 53.7035 39.5617 54.3041 39.5386 54.3236C39.5156 54.3432 39.3199 54.4214 39.1039 54.4975C37.5951 55.0289 36.2499 55.8993 35.1148 57.0785C34.3064 57.9183 33.8113 58.6199 33.3317 59.6053C32.8851 60.5229 32.6339 61.2681 32.4459 62.2337C32.2534 63.222 32.2523 64.8727 32.4436 65.8303C32.7765 67.4972 33.5804 69.0966 34.6597 70.2397L35.0591 70.6627L34.8834 70.3002C34.6441 69.8062 34.3605 68.956 34.2285 68.3364C34.1459 67.9492 34.12 67.5701 34.1229 66.7956C34.1264 65.882 34.1446 65.7028 34.2869 65.1744C34.9159 62.839 36.7635 61.0788 39.7813 59.9403C40.1232 59.8113 40.42 59.724 40.4407 59.7462C40.4615 59.7684 40.7015 61.1325 40.974 62.7775C41.4557 65.6849 42.1158 69.5675 42.7357 73.1401C42.9029 74.1038 43.0766 75.1098 43.1216 75.3757C43.2824 76.3262 44.1927 81.451 44.4147 82.6567C44.479 83.0056 44.5233 83.2995 44.5131 83.3097C44.4626 83.3607 43.3354 83.5071 42.5252 83.5678C39.1374 83.8222 35.3096 82.9926 32.0531 81.298C26.2724 78.29 22.2656 72.806 21.3468 66.6446C20.8748 63.4796 21.1431 60.113 22.0739 57.5207C22.877 55.2841 24.6836 52.6468 27.1777 50.07C28.7801 48.4144 30.0586 47.3205 32.6754 45.3661C33.9081 44.4454 36.6349 42.2895 37.2006 41.7883C37.4045 41.6075 37.5933 41.5119 37.5933 41.5894ZM46.838 42.2915C47.81 42.4197 49.3045 42.686 49.3592 42.7408C49.3863 42.7679 48.9519 45.8068 48.9143 45.8528C48.9036 45.866 48.5476 45.8174 48.1232 45.7447C45.6083 45.3139 42.989 45.2593 40.7719 45.591C40.4431 45.6403 40.1656 45.6721 40.1553 45.6617C40.1217 45.6281 39.5905 42.452 39.6145 42.4281C39.6463 42.3962 40.8214 42.2406 41.5208 42.1756C41.8365 42.1462 42.9377 42.1307 43.9679 42.1411C45.464 42.1562 46.0418 42.1864 46.838 42.2915ZM50.3872 42.9618C51.3367 43.2128 52.6339 43.6449 52.6626 43.7197C52.7441 43.9319 52.8264 44.845 52.7929 45.1642C52.7474 45.597 52.5197 46.7854 52.4655 46.873C52.4415 46.9118 52.0998 46.8228 51.551 46.635C51.0692 46.47 50.382 46.259 50.0239 46.1661C49.6658 46.0732 49.3582 45.9824 49.3401 45.9644C49.3122 45.9364 49.6818 43.3674 49.7704 42.9739C49.8078 42.8083 49.8061 42.8083 50.3872 42.9618ZM55.4483 44.8623C58.1679 46.2063 60.3162 47.7124 62.386 49.7262L63.2866 50.6023L62.5893 51.2217C62.2059 51.5623 61.8801 51.8409 61.8655 51.8409C61.8508 51.8409 61.824 51.7304 61.8059 51.5953C61.6835 50.6825 60.5804 49.6507 59.2551 49.2094C58.6157 48.9964 57.782 48.945 57.2376 49.0849L56.8516 49.1841L56.2104 48.7997C55.3711 48.2965 54.3374 47.7555 53.5299 47.3967C53.1726 47.2379 52.8803 47.0879 52.8803 47.0634C52.8803 47.0388 52.9698 46.8597 53.0791 46.6655C53.3852 46.1214 53.648 45.4258 53.7967 44.7664C53.92 44.2195 53.9428 44.1698 54.0557 44.2011C54.1237 44.2199 54.7504 44.5175 55.4483 44.8623ZM45.9078 46.1627C46.7474 46.2295 48.5589 46.5036 48.7176 46.588C48.7986 46.631 48.8063 46.6927 48.7639 46.9593C48.7359 47.1351 48.6567 47.6733 48.5878 48.1551C48.5189 48.637 48.4504 49.0677 48.4356 49.1122C48.4174 49.1668 48.3093 49.1038 48.1038 48.9191C47.6911 48.548 47.2522 48.3892 46.5359 48.3518C45.6545 48.3056 44.9053 48.535 44.2038 49.066L43.8354 49.3448L43.1162 49.3873C42.7206 49.4107 42.0979 49.473 41.7323 49.5258C41.3667 49.5785 41.0159 49.6248 40.9526 49.6286C40.8501 49.6348 40.8165 49.517 40.6448 48.5479C40.2931 46.5634 40.2798 46.4603 40.3695 46.4049C40.4542 46.3525 41.2835 46.2358 42.0948 46.1621C42.8466 46.0938 45.0448 46.0941 45.9078 46.1627ZM49.8988 46.8535C50.6307 47.0496 51.9904 47.4901 52.0572 47.5528C52.1187 47.6105 51.9467 47.9107 51.5562 48.427L51.2821 48.7896L51.5948 48.5297C51.7667 48.3868 52.0194 48.1362 52.1561 47.9728L52.4047 47.6759L52.6577 47.7731C53.1697 47.9699 54.9242 48.837 55.576 49.2154L56.2476 49.6052L56.0997 49.8922C55.8231 50.4293 55.9786 51.1655 56.5029 51.7999C57.3635 52.8413 58.911 53.4558 60.2492 53.2875L60.6995 53.2309L60.9057 53.4272C61.2385 53.744 62.2081 54.8785 62.6904 55.5153C63.7082 56.8593 64.6429 58.4218 65.3206 59.9119C65.5159 60.3415 65.692 60.7473 65.7119 60.8138C65.742 60.9142 65.6336 61.0142 65.0695 61.4062L64.3909 61.8778L64.3513 61.4463C64.247 60.3095 63.1728 59.2431 61.896 59.0088L61.4906 58.9344L61.144 58.4239C60.4847 57.453 59.5533 56.3387 58.6205 55.4049C55.9443 52.7259 52.8976 50.9619 49.2247 49.9651C48.9589 49.8929 48.7339 49.8271 48.7249 49.8189C48.7084 49.804 49.1029 47.1877 49.1693 46.8712C49.1884 46.7797 49.236 46.7051 49.2748 46.7052C49.3137 46.7052 49.5945 46.772 49.8988 46.8535ZM9.58733 47.1235C9.78733 47.2219 10.0276 47.3825 10.1213 47.4803L10.2917 47.6582L9.87911 48.2992C9.6521 48.6518 9.43748 48.9335 9.40213 48.9253C9.29319 48.9001 7.14201 47.4632 7.14105 47.415C7.14056 47.39 7.20135 47.369 7.27609 47.3683C7.35083 47.3676 7.5344 47.3098 7.68395 47.2398C8.53325 46.8425 8.96316 46.8162 9.58733 47.1235ZM17.464 49.0552C17.3724 49.2162 17.3441 49.2271 17.0904 49.1985C16.758 49.161 16.4897 49.3047 16.1804 49.6857C15.6831 50.2985 15.4435 51.0388 15.4958 51.8016C15.5247 52.2226 15.5131 52.3118 15.4105 52.4557C15.298 52.6139 15.2971 52.6305 15.3939 52.7782L15.496 52.934L15.6418 52.6893C15.7652 52.4826 15.8053 52.4541 15.901 52.5054C16.2603 52.6976 16.7273 52.4599 17.1068 51.8916C17.5261 51.2638 17.6198 50.9439 17.626 50.1189C17.6293 49.6733 17.6598 49.3414 17.7052 49.2579C17.7588 49.1588 17.7613 49.0891 17.7142 49.0011C17.6274 48.839 17.5813 48.8489 17.464 49.0552ZM10.0417 49.5457C10.2404 49.6806 10.403 49.8039 10.403 49.8196C10.403 49.8352 10.2511 50.111 10.0656 50.4324C9.637 51.1748 8.99615 52.4613 8.62014 53.3341L8.3283 54.0116L7.74932 53.9753C7.4309 53.9553 7.15996 53.93 7.14721 53.9191C7.04123 53.8286 8.74516 50.4081 9.36528 49.4666C9.53724 49.2055 9.54147 49.206 10.0417 49.5457ZM16.685 50.0749L16.8172 50.182L16.4742 50.7396C16.2856 51.0462 16.1101 51.2971 16.0841 51.2971C15.9807 51.2971 15.8874 50.9209 15.9163 50.6203C15.9407 50.366 15.982 50.2755 16.1363 50.1376C16.3562 49.9411 16.4995 49.9248 16.685 50.0749ZM43.2947 50.2548C43.1942 50.577 43.2392 51.248 43.3794 51.5164C43.557 51.8563 44.0008 52.2327 44.4122 52.3922C44.8788 52.5732 45.7647 52.615 46.2974 52.4813C47.2569 52.2404 48.1382 51.5925 48.4647 50.8878C48.5549 50.6932 48.6493 50.5721 48.711 50.5721C48.766 50.5721 49.1081 50.6554 49.4711 50.7572C52.1118 51.4979 54.5623 52.7832 56.7303 54.5651C57.4337 55.1431 58.7085 56.3927 59.2835 57.0675C59.7551 57.6211 60.7353 58.9145 60.7353 58.9832C60.7353 59.0086 60.5991 59.0983 60.4327 59.1826C59.6777 59.5652 59.4515 60.446 59.8769 61.3461C60.3145 62.2715 61.3241 62.9455 62.4435 63.0597C62.6505 63.0808 62.8403 63.1279 62.8652 63.1644C62.9554 63.2964 63.3901 64.7001 63.5968 65.5268C63.8107 66.3823 64.119 68.08 64.119 68.4026C64.119 68.5965 64.0605 68.6146 63.7655 68.5118C63.5812 68.4475 63.5752 68.4342 63.5752 68.0914V67.7373L63.1445 67.6091C62.9076 67.5385 62.6765 67.4665 62.6309 67.449C62.5661 67.4241 62.548 67.4992 62.548 67.7926C62.548 68.0677 62.5278 68.1605 62.4725 68.1399C62.431 68.1245 62.1308 68.0332 61.8056 67.9371C61.341 67.7999 61.2089 67.7365 61.1891 67.6416C61.0092 66.7759 60.8674 66.1944 60.6957 65.6174C59.9029 62.9539 58.4417 60.4577 56.5127 58.4712C53.0844 54.9408 48.4849 53.0833 43.8471 53.3562C43.0498 53.4031 41.8899 53.5481 41.6858 53.6264C41.635 53.6459 41.5786 53.6378 41.5604 53.6084C41.5422 53.579 41.4024 52.8521 41.2497 51.993C41.0373 50.7984 40.9895 50.4205 41.0461 50.3855C41.1526 50.3196 42.5905 50.1246 43.1739 50.0969C43.3356 50.0892 43.3433 50.0993 43.2947 50.2548ZM17.199 50.6295C17.379 50.9775 17.269 51.5414 16.982 51.7424C16.7913 51.876 16.6617 51.8663 16.4815 51.705L16.3296 51.569L16.6731 51.0101C16.862 50.7028 17.0369 50.4512 17.0617 50.4512C17.0865 50.4512 17.1483 50.5315 17.199 50.6295ZM64.249 51.6662C65.3728 52.9809 66.445 54.494 67.2633 55.9195C67.6611 56.6126 68.7102 58.7148 68.7107 58.8198C68.7108 58.853 68.2209 59.2201 67.6218 59.6355C67.0229 60.0509 66.4831 60.4254 66.4224 60.4678C66.3224 60.5376 66.2963 60.5093 66.1444 60.1657C65.0408 57.6693 63.5621 55.3762 61.7716 53.3844C61.534 53.1201 61.3413 52.889 61.3435 52.8709C61.3498 52.8176 63.5183 50.9346 63.5734 50.9346C63.6011 50.9346 63.905 51.2638 64.249 51.6662ZM9.82993 51.7246C9.88159 51.9597 10.1772 52.3 10.3723 52.349L10.5215 52.3865L10.3642 52.733C10.2777 52.9237 10.0714 53.4059 9.90576 53.8047C9.74008 54.2035 9.58491 54.5509 9.56093 54.5768C9.53694 54.6027 9.44612 54.5678 9.35911 54.4994C9.27204 54.4309 9.05144 54.3065 8.86884 54.2229L8.53688 54.0709L8.74787 53.5753C9.0834 52.787 9.69374 51.5388 9.74358 51.5388C9.76866 51.5388 9.80751 51.6224 9.82993 51.7246ZM8.15355 54.4089C8.16262 54.4159 8.07833 54.6635 7.9663 54.9591C7.85422 55.2547 7.71367 55.6538 7.65392 55.8459C7.59422 56.038 7.52274 56.2092 7.49512 56.2263C7.45748 56.2495 6.9176 55.923 6.49162 55.6194C6.48383 55.6138 6.56153 55.376 6.66425 55.0909L6.85096 54.5725L7.16171 54.4783C7.56334 54.3568 7.73331 54.3331 7.95585 54.3678C8.05555 54.3834 8.14455 54.4019 8.15355 54.4089ZM8.75138 54.5643C8.91192 54.6331 9.12854 54.7544 9.23277 54.8339L9.42213 54.9784L9.088 56.0229C8.90419 56.5974 8.74685 57.0762 8.73833 57.0869C8.69482 57.1411 7.74691 56.45 7.74576 56.3631C7.74443 56.2696 8.30872 54.6129 8.38256 54.4935C8.42661 54.4223 8.41476 54.42 8.75138 54.5643ZM6.50117 54.8772C6.37198 55.2864 6.30673 55.436 6.2579 55.4347C6.1744 55.4325 5.62957 55.0805 5.62957 55.0287C5.62957 55.0035 5.70431 54.9822 5.79573 54.9814C5.88715 54.9805 6.07065 54.9283 6.20358 54.8654C6.52165 54.7149 6.55198 54.7161 6.50117 54.8772ZM10.1908 55.7532L10.5042 56.1308L10.2598 57.007C10.1253 57.4889 9.99464 57.8832 9.96933 57.8832C9.93349 57.8832 9.31815 57.4971 8.99615 57.2726C8.94588 57.2376 9.09664 56.6797 9.41911 55.708C9.50183 55.4588 9.58298 55.2327 9.59948 55.2056C9.64008 55.139 9.81621 55.3021 10.1908 55.7532ZM6.91168 56.1699C7.15361 56.3242 7.37138 56.4677 7.39549 56.4887C7.4196 56.5097 7.38515 56.7029 7.31893 56.918C6.75029 58.7646 6.23754 61.6004 6.07627 63.7907L6.035 64.3507L5.81718 64.3126C5.4199 64.2431 4.7605 64.1039 4.74225 64.0855C4.71186 64.0552 4.95446 62.034 5.08999 61.1886C5.3344 59.6637 5.67857 58.1816 6.14727 56.6352C6.26135 56.259 6.35464 55.9371 6.35464 55.9202C6.35464 55.8429 6.50383 55.9098 6.91168 56.1699ZM53.6585 56.9042C56.8702 59.1232 59.2669 62.569 60.286 66.4331C60.4087 66.8984 60.5124 67.4312 60.5165 67.6172C60.5205 67.8032 60.5543 67.9935 60.5914 68.0402C60.6542 68.1188 60.7957 68.9132 60.7957 69.1863C60.7957 69.2586 60.7357 69.329 60.6447 69.3636C60.4286 69.4458 60.4438 69.6574 60.6721 69.7436C60.8304 69.8033 60.8551 69.8475 60.891 70.135C60.9586 70.6761 60.8748 73.6224 60.7702 74.3787C60.5177 76.2069 60.0253 78.0351 59.3282 79.7332C58.9201 80.7272 58.2708 81.9923 58.1505 82.028C57.8404 82.1199 57.4928 82.3512 57.2255 82.6438C56.7731 83.1387 56.264 84.2734 56.264 84.7865C56.264 84.9663 56.124 85.1553 55.3474 86.0234C54.6433 86.8105 53.3808 87.9897 53.0616 88.1584C52.9453 88.2199 52.6898 88.4231 52.4937 88.6099C51.9534 89.125 50.2508 90.2186 49.0224 90.8398C48.8446 90.9296 48.688 90.9921 48.6745 90.9785C48.6373 90.9413 48.2299 88.9305 48.2287 88.7787C48.228 88.6773 48.3288 88.5912 48.6677 88.4042C50.2785 87.515 52.248 85.883 53.5988 84.3183C56.494 80.9645 58.1906 76.5526 58.1995 72.3549C58.2005 71.8562 58.2425 71.1763 58.2928 70.844C58.4237 69.9791 58.4699 68.3137 58.386 67.4866C57.998 63.6597 57.2806 61.3639 55.8843 59.4803C55.3677 58.7834 53.9553 57.3242 53.3184 56.8295C53.1107 56.6681 52.9408 56.5113 52.9408 56.481C52.9408 56.4115 52.9719 56.4299 53.6585 56.9042ZM8.16304 56.9852C8.43126 57.1559 8.65071 57.3349 8.65071 57.3829C8.65071 57.431 8.59778 57.6788 8.53307 57.9336C8.08884 59.6828 7.80014 61.5556 7.6718 63.5214C7.60014 64.6185 7.59331 64.6568 7.47458 64.6241C7.40697 64.6055 7.11373 64.546 6.82292 64.492C6.35506 64.4049 6.29422 64.3788 6.2944 64.2653C6.29464 64.0873 6.45742 62.4123 6.53561 61.7832C6.68346 60.5929 7.07186 58.6187 7.34443 57.6718C7.39228 57.5056 7.47543 57.2133 7.52914 57.0222C7.58292 56.8311 7.63784 56.6748 7.65114 56.6748C7.66449 56.6748 7.89488 56.8145 8.16304 56.9852ZM9.42588 57.8033C9.97591 58.1602 9.97676 58.1612 9.90812 58.4159C9.87512 58.5383 9.77053 58.7201 9.67567 58.8198C9.40697 59.1022 9.18117 59.6574 9.1483 60.1163C9.12467 60.4467 9.14582 60.5828 9.26793 60.8852C9.39651 61.2034 9.41029 61.304 9.37102 61.6374C9.18153 63.2452 9.12787 66.0605 9.25374 67.7926C9.31216 68.5964 9.47313 70.1639 9.59597 71.1254L9.63192 71.4068L9.21688 71.4437C8.98854 71.4639 8.67446 71.4921 8.51881 71.5063C8.2518 71.5307 8.23398 71.523 8.20177 71.3694C8.148 71.1132 7.93664 68.9231 7.89144 68.1542L7.85053 67.4584L8.0144 67.3707C8.10455 67.3224 8.23633 67.1733 8.30727 67.0393C8.566 66.5507 8.41204 65.555 8.0025 65.0682L7.84703 64.8835L7.88745 63.9874C7.93851 62.8567 8.1237 61.1926 8.32479 60.0585C8.46334 59.2767 8.78431 57.806 8.86346 57.59C8.90093 57.4877 8.9938 57.523 9.42588 57.8033ZM70.8287 58.4713C71.0102 58.8249 71.0402 58.9463 71.0583 59.4008C71.084 60.0436 71.0014 60.4616 70.7421 61.0023C70.4298 61.6538 70.3951 61.6561 70.1983 61.038C70.106 60.7485 69.892 60.1327 69.7226 59.6695C69.4391 58.8941 69.4231 58.8224 69.5199 58.7632C69.5777 58.7279 69.8205 58.5583 70.0593 58.3864C70.2982 58.2145 70.522 58.0718 70.5568 58.0692C70.5915 58.0666 70.7139 58.2475 70.8287 58.4713ZM72.0807 59.2428C72.0421 60.2712 71.8265 60.8058 71.1422 61.569C70.8827 61.8585 70.7319 61.8718 70.9325 61.5877C71.2774 61.0987 71.5418 60.3523 71.8273 59.0615C71.9156 58.6627 72.005 58.3092 72.0261 58.276C72.0913 58.1733 72.109 58.4868 72.0807 59.2428ZM10.2821 58.4306C10.2821 58.4619 10.2549 58.4875 10.2217 58.4875C10.1885 58.4875 10.1613 58.4451 10.1613 58.3933C10.1613 58.3415 10.1885 58.3159 10.2217 58.3364C10.2549 58.357 10.2821 58.3993 10.2821 58.4306ZM69.4918 60.8947C69.6938 61.4968 69.8592 62.0291 69.8592 62.0774C69.8592 62.2948 68.6368 63.0736 68.0163 63.2514C67.2211 63.4792 67.3021 63.5078 67.1418 62.9421C67.0643 62.6688 66.8828 62.1155 66.7382 61.7125C66.5938 61.3095 66.4755 60.9507 66.4755 60.9152C66.4755 60.8797 67.0125 60.4819 67.6689 60.0312L68.8622 59.2117L68.9933 59.5057C69.0653 59.6674 69.2896 60.2924 69.4918 60.8947ZM44.4126 59.5473C44.8327 59.6319 45.5843 59.8369 46.0827 60.0028C50.6556 61.5248 53.4826 64.815 53.9972 69.2142C54.3626 72.3385 53.5343 75.6852 51.7104 78.453C50.8616 79.741 49.8396 80.8486 48.7279 81.6851C48.0835 82.17 47.2738 82.664 47.0997 82.6784C47.0139 82.6856 46.941 82.3948 46.6247 80.7836C46.0909 78.0648 45.0702 72.7842 44.8143 71.418C44.7614 71.1355 44.463 69.5449 44.1512 67.8833C43.8394 66.2216 43.5543 64.699 43.5176 64.4996C43.4809 64.3002 43.2759 63.1854 43.062 62.0222C42.848 60.8591 42.6476 59.7744 42.6167 59.6118L42.5604 59.3162L43.1046 59.3548C43.4038 59.3761 43.9925 59.4627 44.4126 59.5473ZM66.2941 62.3959C66.4661 62.9126 66.5934 63.3865 66.577 63.4491C66.5606 63.5118 66.5699 63.563 66.5977 63.563C66.7217 63.563 67.1309 65.3779 67.347 66.8863C67.4869 67.8629 67.635 69.543 67.5861 69.5993C67.5746 69.6125 67.4763 69.598 67.3678 69.567C67.1759 69.5122 67.1699 69.5005 67.1527 69.1463L67.1349 68.782L66.6857 68.6499C66.4385 68.5771 66.2086 68.5177 66.1747 68.5177C66.14 68.5177 66.113 68.6663 66.113 68.8565V69.1955L65.9468 69.1549C65.8554 69.1326 65.5582 69.047 65.2864 68.9647C64.7387 68.7989 64.7675 68.8382 64.6937 68.1552C64.5399 66.7292 64.1507 64.9866 63.669 63.5676C63.5514 63.2212 63.4707 62.9223 63.4896 62.9034C63.5084 62.8845 64.0453 62.5115 64.6825 62.0745C65.6561 61.4069 65.8522 61.2941 65.9113 61.3684C65.9499 61.417 66.1221 61.8794 66.2941 62.3959ZM10.8316 62.3577C10.7383 63.6362 10.7496 65.9556 10.8555 67.2591C10.9493 68.4149 11.2057 70.5025 11.3121 70.9772C11.3461 71.1287 11.3643 71.2623 11.3527 71.2739C11.3053 71.3213 10.0068 71.4072 9.96467 71.3657C9.90304 71.305 9.69923 69.8327 9.58552 68.6265C9.40292 66.6892 9.4083 63.3271 9.59651 61.7623C9.62842 61.4972 9.65174 61.4496 9.73198 61.4864C9.95809 61.59 10.4323 61.5753 10.6447 61.4581C10.761 61.3939 10.8655 61.3663 10.8769 61.3967C10.8884 61.4271 10.8679 61.8596 10.8316 62.3577ZM70.3527 64.1554C71.1109 67.909 71.1461 71.8015 70.4568 75.6778C70.1316 77.5062 69.6048 79.4144 68.9565 81.1116C68.7542 81.641 68.5773 82.0857 68.5631 82.0997C68.5396 82.1233 66.4913 81.2097 66.3016 81.0909C66.2342 81.0488 66.2888 80.8357 66.5878 79.9729C67.4174 77.5792 67.9214 75.2204 68.1035 72.8784C68.138 72.4355 68.1806 72.0497 68.1983 72.0211C68.2159 71.9926 68.3835 72.0219 68.5708 72.0863C68.9841 72.2285 69.1545 72.2338 69.2592 72.1078C69.3937 71.9456 69.2496 71.8291 68.7071 71.6612L68.1976 71.5036L68.2195 70.9321C68.2315 70.6178 68.2517 70.3494 68.2644 70.3358C68.2771 70.3222 68.4461 70.359 68.64 70.4178C69.0855 70.5527 69.219 70.5299 69.2438 70.3147C69.2544 70.2237 69.2544 70.1483 69.2438 70.1474C69.2333 70.1465 68.9936 70.0697 68.7112 69.9769L68.1976 69.8082L68.1524 68.9967C68.0649 67.4226 67.8392 65.795 67.5082 64.3517L67.3446 63.638L67.8013 63.5971C68.406 63.5431 69.1995 63.3636 69.6477 63.1794C69.8471 63.0975 70.0374 63.0367 70.0707 63.0442C70.1039 63.0518 70.2308 63.5518 70.3527 64.1554ZM5.50872 64.432L5.96189 64.5076L5.97778 66.7034L5.99361 68.8992L5.66117 68.5848C5.31023 68.2529 5.01482 68.0947 4.7457 68.0947H4.5831L4.62219 66.5086C4.6437 65.6363 4.67887 64.7812 4.70032 64.6084C4.73748 64.3091 4.74673 64.2958 4.89742 64.3253C4.98437 64.3423 5.25947 64.3903 5.50872 64.432ZM6.7602 64.6735C6.77561 64.6889 6.72467 64.7876 6.64697 64.8928C6.52117 65.0631 6.506 65.1481 6.50872 65.668C6.51114 66.1281 6.53869 66.3107 6.63875 66.53C6.80292 66.8896 7.10099 67.2264 7.38207 67.3698L7.60515 67.4836L7.64745 68.3481C7.68842 69.1857 7.81809 70.6721 7.9002 71.2458L7.94038 71.5268L7.40431 71.5663C6.40147 71.6404 6.50407 71.6575 6.5179 71.418C6.56334 70.6319 6.53609 70.2179 6.41452 69.847C6.29585 69.4848 6.28316 69.2822 6.2515 67.2422C6.23265 66.0255 6.23633 64.9278 6.25978 64.8029C6.30129 64.5818 6.30818 64.5767 6.5173 64.6106C6.63549 64.6298 6.74479 64.6581 6.7602 64.6735ZM62.0737 68.4783L62.5178 68.6132L62.5351 69.2374C62.5487 69.7263 62.5356 69.8553 62.4747 69.8326C62.4319 69.8167 62.1857 69.7413 61.9275 69.6651C61.4104 69.5126 61.4348 69.5454 61.3684 68.9104C61.3476 68.711 61.3153 68.4837 61.2966 68.4054C61.2653 68.2736 61.2766 68.2659 61.4462 68.3031C61.5471 68.3252 61.8295 68.4041 62.0737 68.4783ZM4.97077 68.9851C5.44413 69.3834 5.96147 70.5442 5.92074 71.1165C5.9031 71.3649 5.88685 71.3895 5.72793 71.4076C5.50008 71.4336 5.21162 71.1585 4.91736 70.6342C4.71398 70.2719 4.69488 70.1943 4.65742 69.5768C4.6057 68.724 4.62262 68.6921 4.97077 68.9851ZM63.8912 69.0124C64.0492 69.0597 64.1492 69.1329 64.1852 69.2278C64.2348 69.3584 64.2661 70.3304 64.2206 70.3304C64.21 70.3304 64.0605 70.2886 63.8883 70.2374L63.5752 70.1445V69.5425C63.5752 69.2115 63.5924 68.9407 63.6135 68.9407C63.6346 68.9407 63.7595 68.9729 63.8912 69.0124ZM65.1505 69.3897C65.2977 69.4373 65.5745 69.5196 65.7655 69.5726L66.113 69.6691V70.2717C66.113 70.6031 66.0925 70.8736 66.0676 70.8729C66.0427 70.8721 65.764 70.7961 65.4483 70.7039L64.8743 70.5361L64.8571 69.9196C64.8476 69.5806 64.8496 69.3032 64.8614 69.3032C64.8733 69.3032 65.0034 69.3421 65.1505 69.3897ZM67.5611 70.1177C67.597 70.1398 67.6235 70.3996 67.6235 70.7267C67.6235 71.3417 67.6125 71.3589 67.2951 71.2382C67.1431 71.1804 67.1402 71.1678 67.1402 70.5778V69.9763L67.3194 70.0277C67.4181 70.056 67.5269 70.0965 67.5611 70.1177ZM62.0469 70.161L62.5427 70.2964L62.5605 70.6251L62.5782 70.9538L62.8861 71.0582C63.0554 71.1156 63.2798 71.1814 63.3846 71.2045L63.5752 71.2463V70.9324C63.5752 70.6356 63.5826 70.6205 63.7111 70.6571C63.7859 70.6784 63.9212 70.7121 64.0119 70.7319C64.1026 70.7517 64.201 70.7986 64.2307 70.8362C64.345 70.9807 64.1058 74.639 63.9673 74.863C63.9527 74.8868 63.8267 74.9215 63.6875 74.9402C63.364 74.9836 63.0046 75.238 62.7562 75.5994C62.142 76.4935 62.0761 78.077 62.6064 79.1983L62.7829 79.5715L62.4567 80.3843C61.5085 82.7472 60.0514 85.1362 58.3529 87.1129C58.0602 87.4535 57.8035 87.7318 57.7825 87.7312C57.7423 87.7302 57.1953 86.9007 57.1403 86.7573C57.1182 86.6999 57.2014 86.6405 57.4048 86.5682C58.2925 86.2529 59.1215 84.7166 59.1241 83.3817C59.1251 82.8777 59.1052 82.7672 58.9611 82.4753L58.7968 82.1428L59.2227 81.2839C60.8102 78.0813 61.5644 74.7836 61.5101 71.282C61.4994 70.5924 61.5042 70.0276 61.5208 70.0269C61.5374 70.0262 61.7742 70.0865 62.0469 70.161ZM65.5843 71.2071L66.113 71.3649V71.6893V72.0136L66.4434 72.1097C66.625 72.1625 66.8562 72.2222 66.9569 72.2424L67.1402 72.279V71.9694C67.1402 71.799 67.1497 71.6597 67.1614 71.6597C67.173 71.6597 67.2682 71.6895 67.3728 71.726C67.5624 71.7921 67.5631 71.794 67.5625 72.2245C67.5622 72.4622 67.521 73.023 67.471 73.4707C67.2299 75.6292 66.8576 77.3468 66.1956 79.3547C65.81 80.5244 65.7087 80.7836 65.6371 80.7836C65.609 80.7836 65.3515 80.6737 65.0649 80.5394L64.5439 80.2953L64.8942 79.9503C65.299 79.5518 65.5253 79.0644 65.636 78.3527C65.8105 77.2323 65.4175 75.8763 64.7481 75.2885L64.5416 75.1072L64.6637 74.1538C64.7309 73.6295 64.8007 72.7654 64.8188 72.2337C64.8563 71.135 64.8757 70.9893 64.9806 71.0243C65.0218 71.0381 65.2935 71.1204 65.5843 71.2071ZM5.42745 71.879C5.5579 71.9335 5.77241 71.9631 5.95168 71.9514L6.25506 71.9316L6.36407 72.6741C6.50528 73.636 6.73688 74.7573 6.9947 75.7275C7.10793 76.1537 7.20056 76.5411 7.20056 76.5886C7.20056 76.646 7.13325 76.6748 6.99875 76.6748C6.88775 76.6748 6.58431 76.7292 6.32443 76.7956C6.06455 76.8621 5.83204 76.9165 5.80781 76.9165C5.6428 76.9165 4.98443 73.5897 4.80957 71.8726L4.76666 71.4511L4.98666 71.6189C5.10763 71.7112 5.306 71.8282 5.42745 71.879ZM11.4646 71.7654C12.8281 77.9301 16.3578 83.0203 21.7625 86.616C26.4381 89.7265 32.0711 91.3545 37.684 91.2173C39.1887 91.1806 39.7994 91.1306 41.1281 90.9353C42.51 90.7323 44.1461 90.3477 45.2312 89.9709C45.4275 89.9028 45.6201 89.847 45.6592 89.847C45.7386 89.847 46.1466 91.8474 46.0948 91.9825C46.0447 92.1131 44.2619 92.5959 42.971 92.8285C41.1389 93.1587 39.6601 93.2904 37.7801 93.2908L36.3656 93.2911L36.058 93.0633C35.2993 92.5016 34.6334 92.157 33.7412 91.8648C32.2204 91.3666 30.7182 91.3497 29.2897 91.8145L28.7857 91.9785L28.3014 91.8223C26.1908 91.1415 23.711 89.9811 21.7927 88.7767C18.2813 86.5721 15.3752 83.6701 13.2489 80.2452C12.8308 79.5718 12.8292 79.5676 12.915 79.3623C13.0342 79.077 13.0206 78.6266 12.8836 78.325C12.7265 77.979 12.3091 77.5404 11.9374 77.3306C11.6679 77.1785 11.609 77.1087 11.4722 76.7797C10.9078 75.4218 10.4391 73.9068 10.1355 72.4593C10.05 72.0517 9.98002 71.7066 9.98002 71.6924C9.98002 71.6575 10.3946 71.6226 10.9607 71.6098C11.4245 71.5993 11.4281 71.6005 11.4646 71.7654ZM9.72691 71.8457C9.84171 72.7384 10.4768 75.0462 10.9504 76.2916C11.2612 77.1088 11.2583 77.0645 10.9986 77.0454C10.7018 77.0236 10.3159 77.1341 10.0311 77.3226C9.90195 77.408 9.78769 77.4672 9.77712 77.454C9.66298 77.3114 9.10902 75.6153 8.83253 74.562C8.59374 73.6524 8.28818 72.1713 8.28818 71.9235C8.28818 71.8024 8.3263 71.7877 8.72624 71.7551C8.96721 71.7355 9.25948 71.7106 9.37579 71.6997C9.67881 71.6715 9.706 71.6828 9.72691 71.8457ZM8.13301 72.7473C8.3967 74.2061 8.86667 75.9334 9.33936 77.1805C9.42582 77.4088 9.49664 77.6143 9.49664 77.6373C9.49664 77.6602 9.21102 77.8759 8.86189 78.1166L8.22721 78.5543L8.16165 78.3849C7.95325 77.8465 7.6944 77.1019 7.65802 76.936C7.61917 76.7592 7.62932 76.742 7.78582 76.7184C7.9509 76.6936 7.95017 76.6926 7.76201 76.6839C7.57561 76.6752 7.56322 76.6581 7.43736 76.2367C7.17978 75.3742 6.89893 74.1343 6.71567 73.0504C6.61319 72.4442 6.5405 71.937 6.55416 71.9234C6.59506 71.8825 7.8921 71.8025 7.93507 71.8382C7.95688 71.8564 8.04594 72.2654 8.13301 72.7473ZM57.3834 75.0617C56.601 79.8164 53.8784 84.1465 49.8383 87.061C49.1119 87.5851 48.1518 88.1646 48.1013 88.1096C48.0645 88.0695 47.261 84.141 47.261 84.0012C47.261 83.9701 47.3766 83.9101 47.5178 83.8678C47.9503 83.7382 49.357 83.1011 50.0029 82.7421C52.9106 81.1262 55.1907 78.793 56.6999 75.8893C56.8812 75.5404 57.0727 75.1461 57.1253 75.0132C57.476 74.1273 57.5353 74.1385 57.3834 75.0617ZM7.59645 77.702C7.75126 78.1506 7.88993 78.5721 7.90461 78.6385C7.92588 78.735 7.81531 78.8385 7.35567 79.1521C7.03905 79.3681 6.74546 79.5449 6.70328 79.5449C6.63204 79.5449 6.05845 78.0373 5.96715 77.6098C5.92993 77.4359 5.94715 77.4159 6.32491 77.195C6.74292 76.9504 7.20195 76.7822 7.27289 76.8475C7.29603 76.8688 7.44165 77.2533 7.59645 77.702ZM6.01954 78.7588C6.21555 79.3401 6.36431 79.8251 6.35017 79.8365C6.08558 80.0514 5.13476 80.6628 5.09941 80.6409C5.07289 80.6245 4.98419 80.48 4.90231 80.3197C4.70461 79.9327 4.70117 79.2256 4.89446 78.7292C5.01712 78.4142 5.51815 77.702 5.61706 77.702C5.64244 77.702 5.82352 78.1776 6.01954 78.7588ZM9.61748 78.1444C9.61748 78.4631 9.7808 78.8575 10.0365 79.1563C10.1665 79.3082 10.441 79.7568 10.6465 80.1533C11.3081 81.4295 11.9195 82.4286 12.7456 83.5831C13.027 83.9762 13.2336 84.3202 13.2047 84.3473C13.1759 84.3744 12.8674 84.5769 12.5192 84.7972L11.8862 85.1976L11.7795 85.0601C11.2016 84.3151 9.89833 82.1863 9.34165 81.0778C8.91652 80.2313 8.34099 78.9025 8.36087 78.8132C8.37869 78.7332 9.47537 77.9437 9.56878 77.9437C9.59555 77.9437 9.61748 78.034 9.61748 78.1444ZM4.79772 78.2005C4.60775 78.5204 4.4321 79.0211 4.27627 79.6875C4.06999 80.5694 3.97446 80.6233 4.01506 79.835C4.05089 79.1396 4.19833 78.7283 4.57784 78.2651C4.82914 77.9585 4.96521 77.9185 4.79772 78.2005ZM8.31966 79.6053C8.90171 81.0277 9.97942 83.0014 10.986 84.4883C11.2968 84.9474 11.551 85.3451 11.551 85.3721C11.551 85.4268 10.3146 86.2216 10.2295 86.2216C10.1587 86.2216 9.18262 84.734 8.67923 83.8589C7.93138 82.5587 6.73295 80.0352 6.78854 79.8778C6.82135 79.7851 8.01386 78.9806 8.0567 79.0222C8.07893 79.0438 8.1973 79.3062 8.31966 79.6053ZM11.774 79.9981C11.9526 79.9981 12.1963 79.9573 12.3156 79.9074C12.4349 79.8576 12.5538 79.8168 12.5798 79.8168C12.6058 79.8168 12.7147 79.9732 12.8218 80.1642C13.4832 81.3443 14.7881 83.0976 15.9772 84.4035C16.2017 84.65 16.3745 84.8624 16.3615 84.8755C16.3484 84.8885 16.1896 84.8046 16.0088 84.6889C15.3217 84.2494 14.4916 84.006 13.8929 84.0686L13.5435 84.1051L13.1313 83.5471C12.9046 83.2401 12.5484 82.7339 12.3397 82.4223C11.9047 81.7723 10.8864 80.0046 10.8864 79.8992C10.8864 79.8474 10.9612 79.8512 11.1679 79.9133C11.3227 79.9599 11.5955 79.9981 11.774 79.9981ZM65.5052 81.13C65.5566 81.1668 65.3707 81.6078 64.8481 82.6886C63.5797 85.3124 62.1536 87.4037 60.142 89.5902C59.798 89.9641 59.4954 90.27 59.4697 90.27C59.4439 90.27 59.3052 90.0865 59.1615 89.8621C59.0177 89.6378 58.7166 89.1791 58.4924 88.8428L58.0846 88.2314L58.7037 87.5106C60.5009 85.418 61.9243 83.1343 62.8883 80.7966C63.0078 80.5069 63.1294 80.2246 63.1586 80.1691C63.2051 80.0807 63.3508 80.1323 64.3451 80.5895C64.9685 80.8762 65.4905 81.1194 65.5052 81.13ZM67.3209 81.9592C67.8689 82.2126 68.3365 82.4392 68.36 82.4628C68.4215 82.5245 67.6744 84.1042 67.0824 85.1642C66.0774 86.9638 64.8076 88.7982 63.5482 90.2699C62.8854 91.0445 61.2246 92.7477 61.1336 92.7461C61.0973 92.7455 60.7722 92.2966 60.4111 91.7485L59.7545 90.7521L60.3507 90.1328C62.0359 88.3823 63.5652 86.284 64.7864 84.0463C65.0944 83.4819 65.8505 81.9072 65.9971 81.5245C66.0589 81.3634 65.9669 81.3332 67.3209 81.9592ZM13.092 85.2142C13.3114 86.0782 14.5829 87.1224 15.7337 87.3837C16.0427 87.4539 16.1504 87.5264 16.7637 88.077C17.6384 88.8624 18.1136 89.253 19.0133 89.9259C19.412 90.2242 19.7383 90.4898 19.7383 90.5161C19.7383 90.6097 18.9518 92.0204 18.8991 92.0213C18.8288 92.0225 17.5897 91.0975 17.44 90.9321C17.3258 90.806 17.3262 90.8032 17.474 90.6857L17.6235 90.5669L17.4 90.6558L17.1765 90.7446L16.4937 90.1631C15.5006 89.3172 13.9369 87.7242 13.0104 86.6141C12.5668 86.0828 12.1785 85.6005 12.1475 85.5424C12.1004 85.4545 12.1598 85.3915 12.5007 85.1673C12.7261 85.0191 12.9351 84.9048 12.965 84.9133C12.995 84.9218 13.0522 85.0572 13.092 85.2142ZM18.3272 86.6666C19.1368 87.3701 20.1719 88.1582 20.9921 88.6958C21.5789 89.0804 21.6795 89.1824 21.4721 89.1824C21.4121 89.1824 21.1878 89.2413 20.9736 89.3133C20.6639 89.4174 20.5147 89.515 20.2443 89.7906L19.9043 90.1369L19.0963 89.5303C18.1941 88.8531 17.8545 88.5764 17.1177 87.9179L16.6119 87.4659L16.7854 87.4027C17.0875 87.2926 17.2268 87.19 17.3208 87.0083C17.4582 86.7427 17.4347 86.3472 17.2612 86.0052C17.1783 85.8418 17.1103 85.6848 17.1102 85.6564C17.1101 85.628 17.2294 85.7096 17.3755 85.8377C17.5216 85.9658 17.9498 86.3388 18.3272 86.6666ZM12.1833 86.1452C13.3885 87.7063 14.6655 89.024 16.7646 90.8729C16.7907 90.8958 16.6061 91.0723 16.3545 91.2651C16.1029 91.4578 15.8049 91.7232 15.6922 91.8548L15.4873 92.0941L14.8334 91.492C13.2649 90.0481 11.8224 88.4399 10.4468 86.6016C10.4078 86.5494 10.5804 86.4063 11.047 86.1041C11.4073 85.8708 11.7293 85.6796 11.7625 85.6792C11.7957 85.6788 11.9851 85.8886 12.1833 86.1452ZM56.3198 85.9979C56.3489 86.0743 56.6337 86.5371 56.9527 87.0263C57.2718 87.5156 57.5329 87.9468 57.5329 87.9846C57.5329 88.1939 54.4366 90.9346 54.2001 90.9346C54.1712 90.9346 54.1863 90.842 54.2336 90.7289C54.3714 90.399 54.4554 89.9032 54.458 89.4039C54.4607 88.8813 54.3821 88.5767 54.1719 88.2951L54.0283 88.1028L55.0858 87.0399C55.6673 86.4553 56.1432 85.9505 56.1432 85.9181C56.1432 85.8043 56.2675 85.8605 56.3198 85.9979ZM70.1311 87.1022C69.853 87.2468 69.7097 87.4053 69.5358 87.7604C69.2202 88.4049 69.1775 89.1855 69.4269 89.7493C69.5638 90.059 69.5481 90.046 71.6719 91.5955C76.182 94.8861 76.5141 95.1196 76.5828 95.0509C76.6255 95.0082 76.6295 94.9627 76.5933 94.9282C76.5618 94.898 75.1628 93.8758 73.4846 92.6565C71.8063 91.4372 70.4332 90.4169 70.4332 90.3892C70.4332 90.3614 70.5273 90.2753 70.6423 90.1978C71.1133 89.8804 71.3967 89.2282 71.3986 88.4573C71.3998 88.0127 71.3767 87.8963 71.2269 87.5911C70.9634 87.0544 70.5648 86.8766 70.1311 87.1022ZM58.5324 89.4364C58.8873 89.9749 59.1892 90.4456 59.2032 90.4824C59.2579 90.6249 57.0406 92.4966 55.7806 93.3715C55.1176 93.8318 53.9119 94.5993 53.7603 94.6575C53.6982 94.6814 53.5 94.428 53.0858 93.7949C52.7633 93.3018 52.4883 92.8567 52.4748 92.8058C52.4589 92.7461 52.5426 92.6619 52.7105 92.5686C53.9132 91.901 55.9219 90.3445 57.2831 89.0256C57.6033 88.7154 57.8702 88.4606 57.8763 88.4595C57.8823 88.4582 58.1776 88.8979 58.5324 89.4364ZM51.6034 90.314C51.4758 90.774 51.4544 91.5349 51.5603 91.8471C51.5986 91.96 51.6827 92.1282 51.7472 92.2207C51.8117 92.3134 51.8513 92.4231 51.8354 92.4648C51.7763 92.6187 49.3275 93.8113 49.2441 93.7268C49.1976 93.6797 48.7505 91.5367 48.7822 91.5131C48.793 91.5051 49.1472 91.3182 49.5693 91.0979C49.9914 90.8775 50.6168 90.5214 50.959 90.3067C51.3012 90.0919 51.6116 89.9143 51.6487 89.9118C51.6934 89.9089 51.6782 90.0442 51.6034 90.314ZM26.5057 91.5866C27.0042 91.7833 27.5956 92.0075 27.8199 92.085C28.0442 92.1625 28.2278 92.2434 28.2278 92.265C28.2278 92.2864 28.085 92.3956 27.9105 92.5076C27.7361 92.6195 27.3754 92.9323 27.109 93.2025L26.6248 93.6938L25.8401 93.3693C24.7866 92.9335 22.971 92.0452 22.971 91.9654C22.971 91.9302 22.9943 91.9014 23.0229 91.9014C23.1194 91.9014 23.639 91.4054 23.7331 91.2234C23.7846 91.124 23.8359 90.9028 23.8472 90.7318C23.8584 90.5609 23.8699 90.416 23.8725 90.4099C23.8751 90.4037 24.2648 90.5856 24.7383 90.814C25.2119 91.0423 26.0072 91.39 26.5057 91.5866ZM20.1015 91.317C20.4238 91.8116 21.1844 92.1431 21.9971 92.1431C22.2923 92.1431 22.5039 92.1732 22.5798 92.2262C22.8136 92.3889 24.4668 93.199 25.387 93.6014C25.9015 93.8265 26.3319 94.0387 26.3433 94.0729C26.3548 94.1072 26.3111 94.2104 26.2462 94.3023C26.0705 94.5512 25.7746 95.1594 25.6873 95.4512C25.6433 95.5982 25.5734 95.708 25.5238 95.708C25.394 95.708 23.5675 94.855 22.6223 94.3531C21.3142 93.6583 19.1643 92.3225 19.1643 92.2044C19.1643 92.1805 19.3186 91.8796 19.5071 91.5358C19.8015 90.9988 19.8591 90.9261 19.9149 91.0205C19.9507 91.081 20.0347 91.2144 20.1015 91.317ZM60.1942 91.9445C60.5348 92.4668 60.8163 92.9341 60.8197 92.983C60.8273 93.0913 59.7314 94.0461 58.7597 94.7779C57.5689 95.6747 55.4542 97.0373 55.2533 97.0373C55.2205 97.0373 54.9155 96.6104 54.5757 96.0885C54.0513 95.2832 53.972 95.1302 54.0513 95.0764C54.1027 95.0416 54.5397 94.7701 55.0224 94.4732C56.1385 93.7865 57.6353 92.6647 58.6809 91.7314C59.1296 91.3309 59.5142 91.0014 59.5358 90.9992C59.5573 90.9969 59.8536 91.4223 60.1942 91.9445ZM17.7391 91.6446C18.1143 91.9354 18.4936 92.2277 18.582 92.2941L18.7426 92.415L18.3439 93.1401C18.1247 93.5388 17.9236 93.8878 17.8972 93.9155C17.8707 93.9432 17.6771 93.8393 17.467 93.6846C16.9166 93.2794 15.9619 92.4975 15.9619 92.4519C15.9619 92.4306 16.0724 92.2231 16.2075 91.9911C16.4711 91.5382 16.8414 91.1159 16.9748 91.1159C17.02 91.1159 17.3639 91.3538 17.7391 91.6446ZM46.2563 92.6114C46.2881 92.7213 46.5435 93.8933 46.6445 94.3937L46.7024 94.6805L46.32 94.7987C45.8883 94.932 44.0716 95.3455 43.9174 95.3455C43.7925 95.3455 43.7915 95.3578 43.9425 95.0164C44.1876 94.4622 44.0938 93.9413 43.7056 93.7013C43.3965 93.5103 42.7699 93.5232 42.2549 93.7312C41.396 94.0781 40.5791 94.7502 40.1823 95.4361L39.9725 95.7987L39.1606 95.8291C38.714 95.8458 38.3197 95.8517 38.2844 95.8421C38.2491 95.8325 38.1887 95.7373 38.1501 95.6304C38.0437 95.3363 37.5173 94.5104 37.203 94.1444C37.0495 93.9657 36.9318 93.8128 36.9414 93.8046C36.951 93.7964 37.5299 93.7718 38.2278 93.7499C41.1842 93.6574 43.5216 93.3152 45.6598 92.6616C46.2521 92.4805 46.2192 92.4833 46.2563 92.6114ZM19.365 92.8312C20.7453 93.8115 22.9496 95.0301 24.8743 95.8772C25.3843 96.1016 25.4175 96.1273 25.4089 96.2899C25.4038 96.3853 25.3654 96.8341 25.3235 97.2872L25.2474 98.1112L24.8191 97.9327C23.9818 97.5836 21.8393 96.5044 20.9468 95.9822C19.6917 95.2479 18.1258 94.2048 18.1485 94.1182C18.1753 94.0159 18.9417 92.566 18.969 92.566C18.9814 92.566 19.1596 92.6854 19.365 92.8312ZM16.4888 93.3885C16.847 93.6747 17.2557 93.9921 17.3969 94.0937C17.5381 94.1952 17.6537 94.305 17.6537 94.3375C17.6537 94.4486 16.842 95.8893 16.7795 95.889C16.7452 95.8888 16.5812 95.7859 16.4151 95.6601C15.8294 95.2171 15.5097 94.2703 15.653 93.4031C15.7211 92.9903 15.7576 92.8682 15.8126 92.8682C15.8263 92.8682 16.1306 93.1024 16.4888 93.3885ZM52.8145 93.8949C53.1469 94.4099 53.3997 94.85 53.3762 94.8731C53.1988 95.0473 50.1576 96.4474 49.8344 96.5037C49.7308 96.5217 49.7082 96.4499 49.6125 95.7987C49.5156 95.1392 49.4181 94.6244 49.3429 94.375C49.3215 94.3039 49.4748 94.2104 49.9644 93.9965C50.322 93.8402 50.9408 93.5379 51.3395 93.3247C51.7383 93.1115 52.0974 92.942 52.1374 92.948C52.1774 92.9539 52.4821 93.3801 52.8145 93.8949ZM15.2756 94.0012C15.2829 94.4528 15.4926 95.5541 15.6955 96.2065C15.7136 96.2647 15.7026 96.3123 15.6711 96.3123C15.5806 96.3123 15.1914 95.4758 15.0807 95.0434C15.012 94.7746 14.991 94.5266 15.0144 94.2579C15.0487 93.8623 15.1546 93.4723 15.2276 93.4725C15.2493 93.4726 15.2709 93.7104 15.2756 94.0012ZM61.4586 93.8624C61.6189 94.1084 61.6949 94.2812 61.6645 94.3306C61.5064 94.5878 57.8421 99.4721 57.3964 100.02L57.2559 100.193L56.3974 98.8824C55.9252 98.1619 55.5394 97.5539 55.54 97.5314C55.5406 97.5089 55.9417 97.2511 56.4313 96.9584C57.8733 96.0963 59.7753 94.7144 60.7655 93.8093C60.9649 93.6271 61.1453 93.4767 61.1663 93.4752C61.1873 93.4737 61.3188 93.6479 61.4586 93.8624ZM46.8044 95.3002C46.8842 95.6723 47.0257 96.9802 47.0086 97.1871C46.9898 97.4149 46.9789 97.4255 46.687 97.5008C45.3588 97.8438 42.866 98.2181 41.12 98.337L40.5681 98.3746L40.4703 97.8419C40.3288 97.0711 40.3021 97.1249 40.8147 97.1475C41.5283 97.1789 42.329 96.8416 43.024 96.2169L43.3376 95.9348L44.4987 95.7012C45.1373 95.5727 45.8909 95.4027 46.1734 95.3233C46.4559 95.2439 46.7069 95.1756 46.7311 95.1715C46.7554 95.1675 46.7884 95.2254 46.8044 95.3002ZM54.3292 96.2407C54.6623 96.7496 54.9347 97.1873 54.9347 97.2133C54.9347 97.2882 53.0568 98.2028 52.125 98.5818C51.4191 98.869 49.84 99.4543 49.771 99.4543C49.7602 99.4543 49.7551 98.915 49.7599 98.2561L49.7685 97.0578L50.4332 96.798C51.2684 96.4715 52.7958 95.772 53.2731 95.4975C53.4725 95.3828 53.6554 95.2949 53.6797 95.3021C53.7039 95.3094 53.9962 95.7317 54.3292 96.2407ZM40.0575 97.2999C40.1691 97.8598 40.2518 98.3261 40.2411 98.3363C40.2305 98.3465 39.8818 98.3643 39.4664 98.3759L38.7111 98.3969L38.6716 97.7624C38.6498 97.4135 38.5887 96.9609 38.5356 96.7567C38.4826 96.5525 38.4392 96.3701 38.4392 96.3513C38.4392 96.3179 39.2313 96.2697 39.6453 96.2779L39.8544 96.2821L40.0575 97.2999ZM47.0542 98.8138C47.0304 99.2824 46.9924 99.7869 46.9698 99.935C46.9224 100.245 47.0391 100.201 45.5994 100.454C44.5947 100.631 42.1225 100.904 41.5249 100.904H41.1025L41.0431 100.678C40.9655 100.382 40.6716 98.8319 40.6905 98.8186C40.6985 98.8129 41.1644 98.7752 41.7258 98.7347C42.971 98.645 44.8044 98.385 46.0223 98.1254C46.5208 98.0191 46.9392 97.9219 46.9522 97.9094C46.9652 97.8968 47.0032 97.9035 47.0367 97.9242C47.0764 97.9488 47.0825 98.259 47.0542 98.8138ZM40.3728 98.8953C40.3728 98.9202 40.4539 99.3349 40.553 99.8168C40.6522 100.299 40.7337 100.754 40.7343 100.829L40.7353 100.965H39.4412C38.7294 100.965 38.1067 100.949 38.0573 100.93C37.9833 100.902 38.0027 100.82 38.1675 100.462C38.2774 100.224 38.4311 99.7635 38.509 99.4398L38.6507 98.8514L39.5117 98.8507C39.9853 98.8503 40.3728 98.8705 40.3728 98.8953ZM46.8176 100.829C46.491 102.038 46.0189 103.081 45.4079 103.942C44.9272 104.62 43.9027 105.628 43.2233 106.092C41.6527 107.164 39.7942 107.618 37.6988 107.443C36.0376 107.304 34.271 106.935 33.2717 106.519C32.1168 106.038 31.54 105.225 31.919 104.612C32.1915 104.171 32.8795 103.828 34.7525 103.2C36.4172 102.642 36.6218 102.537 37.1606 101.96C37.3986 101.705 37.5933 101.472 37.5933 101.442C37.5933 101.411 38.2995 101.388 39.2236 101.388H40.8539L40.8853 101.524C40.922 101.682 41.1717 102.952 41.5538 104.923C41.702 105.687 41.8373 106.373 41.8545 106.448C41.8884 106.596 42.0917 106.637 42.142 106.506C42.1585 106.463 41.9577 105.342 41.6958 104.014C41.434 102.686 41.2195 101.554 41.2192 101.498C41.2188 101.418 41.2963 101.391 41.5963 101.365C43.4528 101.208 44.8475 101.05 45.6598 100.907C46.8634 100.696 46.8534 100.696 46.8176 100.829Z" fill="white"/>
</svg>
