<svg width="40" height="40" viewBox="0 0 40 40" fill="none" xmlns="http://www.w3.org/2000/svg">
<circle cx="20" cy="20" r="19.5" stroke="#002939"/>
<path d="M32.5586 8.66666C33.5447 8.66666 34.2886 9.53166 33.8907 11.1406L29.064 33.8902C28.7266 35.5077 27.7491 35.897 26.3997 35.1444L14.8865 26.6414C14.8419 26.6094 14.8055 26.5672 14.7804 26.5183C14.7553 26.4694 14.7422 26.4153 14.7422 26.3603C14.7422 26.3054 14.7553 26.2512 14.7804 26.2023C14.8055 26.1534 14.8419 26.1112 14.8865 26.0792L28.1816 14.0729C28.7872 13.5366 28.0519 13.2771 27.2561 13.7615L10.5702 24.2886C10.5196 24.3216 10.4621 24.3427 10.4021 24.3502C10.3422 24.3577 10.2813 24.3514 10.2242 24.3319L3.13977 22.0915C1.56546 21.6331 1.56546 20.5518 3.49442 19.782L31.8406 8.84831C32.0654 8.74046 32.3095 8.6787 32.5586 8.66666V8.66666Z" stroke="#002939" stroke-linecap="round" stroke-linejoin="round"/>
</svg>
