<svg width="42" height="42" viewBox="0 0 42 42" fill="none" xmlns="http://www.w3.org/2000/svg">
<path d="M21.009 1C17.5333 1.00373 14.1184 1.91196 11.1 3.63539C8.08158 5.35883 5.56368 7.83812 3.79382 10.8295C2.02396 13.8209 1.06307 17.2214 1.00564 20.6967C0.948199 24.172 1.79619 27.6024 3.46623 30.6506L1 41.0181L11.3675 38.5519C14.0415 40.0187 17.0154 40.8549 20.0621 40.9965C23.1087 41.1381 26.1474 40.5814 28.9459 39.3688C31.7444 38.1563 34.2287 36.32 36.2089 34.0004C38.1892 31.6808 39.6129 28.9391 40.3714 25.985C41.1299 23.0309 41.203 19.9425 40.5852 16.9558C39.9674 13.9692 38.675 11.1632 36.8067 8.75248C34.9385 6.34173 32.5439 4.38996 29.8059 3.04633C27.0679 1.7027 24.059 1.00276 21.009 1V1ZM11.0045 10.0925H16.4582C16.705 10.0925 16.9417 10.1905 17.1162 10.3651C17.2908 10.5396 17.3888 10.7763 17.3888 11.0231C17.3583 12.2643 17.5668 13.4997 18.003 14.662C18.1909 15.0511 18.2322 15.4949 18.1194 15.9119C18.0066 16.329 17.7472 16.6914 17.3888 16.9328L15.481 18.7941C16.3269 20.446 17.433 21.9512 18.7569 23.2519C20.0471 24.5974 21.5461 25.7256 23.1961 26.593L25.0574 24.6851C25.988 23.7545 26.4161 23.7545 27.3282 24.0709C28.4905 24.5071 29.7259 24.7157 30.967 24.6851C31.2102 24.6965 31.4404 24.7981 31.6125 24.9703C31.7847 25.1424 31.8864 25.3726 31.8977 25.6158V31.0694C31.8864 31.3126 31.7847 31.5428 31.6125 31.7149C31.4404 31.8871 31.2102 31.9887 30.967 32.0001C25.4926 31.7616 20.3033 29.4921 16.4116 25.6344C12.5479 21.7468 10.2773 16.5551 10.046 11.079C10.0482 10.8228 10.149 10.5774 10.3275 10.3936C10.5061 10.2099 10.7485 10.1021 11.0045 10.0925V10.0925Z" stroke="#002939" stroke-linecap="round" stroke-linejoin="round"/>
</svg>
