<svg width="49" height="70" viewBox="0 0 49 70" fill="none" xmlns="http://www.w3.org/2000/svg">
<path fill-rule="evenodd" clip-rule="evenodd" d="M15.2425 0.246604C14.6232 0.580526 14.3736 1.16388 14.5039 1.97231C14.5422 2.20967 14.7928 3.63377 15.0606 5.137C17.3586 18.0312 18.3838 30.2041 18.0727 40.901C18.0153 42.8753 17.9477 44.5112 17.9225 44.5361C17.8974 44.5611 17.6481 44.3689 17.3684 44.109C16.1998 43.023 14.5843 42.1599 12.8981 41.7208C11.0081 41.2287 8.6086 41.3036 6.72573 41.9136C4.98132 42.4787 3.63678 43.3283 2.35216 44.6772C-0.577248 47.7532 -0.772445 52.2946 1.88146 55.6289C3.24436 57.3413 5.2144 58.5527 7.61165 59.1527C8.83318 59.4585 11.455 59.4585 12.6765 59.1527C13.921 58.8413 14.9509 58.4185 15.8886 57.8342C16.9819 57.153 17.6604 56.5689 18.3579 55.7084C19.1016 54.791 19.5384 54.0029 19.8912 52.9422C20.049 52.4679 20.2431 51.9503 20.3225 51.7921C20.5566 51.3261 20.8939 47.134 21.0634 42.5857C21.369 34.3869 20.8973 25.3446 19.6554 15.59C19.4706 14.1396 19.2754 12.6776 19.2214 12.3412C19.1674 12.0048 19.1427 11.7103 19.1665 11.6867C19.1903 11.6631 19.9856 12.158 20.9338 12.7863C28.1534 17.5706 33.6791 20.3914 39.6652 22.3485C40.675 22.6786 42.0331 23.0904 42.683 23.2635C43.4866 23.4776 43.88 23.6275 43.9123 23.7318C43.9942 23.997 44.4322 27.3546 44.6327 29.2557C45.1277 33.9479 45.3259 37.7305 45.3312 42.5857C45.3369 47.8186 45.0613 51.989 44.493 55.2714L44.4386 55.586L44.0108 55.0213C42.4851 53.007 40.0412 51.6077 37.2793 51.1669C36.1093 50.9803 33.9915 51.089 32.8043 51.397C31.1259 51.8322 29.4893 52.7178 28.2893 53.8401C26.9918 55.0536 26.0897 56.5782 25.6925 58.2291C25.5199 58.9462 25.4945 59.2845 25.5314 60.3751C25.5698 61.5106 25.6133 61.7816 25.8848 62.5808C26.4826 64.3396 27.5326 65.7851 29.0329 66.9153C32.6781 69.6611 37.8116 69.8274 41.6462 67.3238C42.5216 66.7522 43.6956 65.6193 44.2259 64.8344C44.7824 64.0107 46.0162 61.4588 46.4245 60.2867C47.3186 57.7205 47.8914 54.4282 48.2362 49.8741C48.3978 47.7399 48.3966 39.2493 48.2344 36.4482C47.7105 27.4024 46.7087 20.1803 45.3547 15.6871C44.903 14.1883 44.7076 13.999 43.239 13.6376C37.1157 12.1308 31.294 9.57503 24.6359 5.47034C23.7075 4.89792 21.4911 3.45952 19.7107 2.27373C16.8591 0.374629 16.4217 0.113975 16.0386 0.0848214C15.7348 0.0618055 15.495 0.110522 15.2425 0.246604ZM21.45 6.96081C28.9331 11.7348 35.3567 14.6711 41.9963 16.353L42.3947 16.454L42.6899 17.5803C43.0762 19.0547 43.3219 20.1925 43.2657 20.2483C43.2091 20.3045 40.6552 19.5412 39.3876 19.0892C33.6446 17.0418 28.5673 14.3156 20.7736 9.09525L18.5028 7.57418L18.2905 6.37956C17.9674 4.56179 17.9051 4.64081 19.0584 5.40801C19.6031 5.77041 20.6794 6.46923 21.45 6.96081Z" fill="white"/>
</svg>
